<?xml version="1.0" ?><!DOCTYPE svg  PUBLIC '-//W3C//DTD SVG 1.1//EN'  'http://www.w3.org/Graphics/SVG/1.1/DTD/svg11.dtd'><svg enable-background="new 0 0 512 512" height="512px" id="Calque_1" version="1.1" viewBox="0 0 512 512" width="512px" xml:space="preserve" xmlns="http://www.w3.org/2000/svg" xmlns:xlink="http://www.w3.org/1999/xlink"><g id="Calque_1_1_"/><g id="Calque_2"><g><path d="M71.564,288.237c-2.269-2.189-3.995-4.354-3.057-3.614c-4.809-4.276-4.603-4.677-5.707-4.749    c-3.168-2.662-5.927-6.123-2.402-3.016l-8.721-8.09l4.945,5.106c-0.898-0.471-2.874-2.511-4.887-4.569    c-1.006-1.029-2.021-2.063-2.917-2.909c-0.226-0.208-0.442-0.407-0.646-0.595c-0.227-0.198-0.439-0.383-0.635-0.554    c-0.531-0.502-0.765-0.697-1.078-0.932c0,0,0.149,0.177,0.411,0.484c0.117,0.134,0.314,0.364,0.562,0.618    c0.186,0.184,0.395,0.392,0.624,0.618c0.857,0.85,2,1.981,3.142,3.114c2.285,2.264,4.57,4.528,4.57,4.528l-0.597-0.313    c2.225,1.918,6.185,6.007,7.527,7.47c-0.292-0.15-0.265,0.104-1.883-1.487c10.952,11.019,3.709,2.209,12.967,11.183    C73.2,289.97,72.499,289.258,71.564,288.237z" fill="#202020"/><path d="M79.845,298.62l4.37,3.294l6.29,6.567c0.259-0.112,5.091,4.421,2.084,1.086    c-0.649-0.59-1.93-1.761-2.903-2.768c1.119,0.316,8.749,8.35,7.266,6.054c-5.19-4.978-5.882-5.847-9.337-8.65    c-4.624-4.698-7.926-8.185-9.955-10.508c-1.445-1.322-1.885-1.271-3.692-2.979c0.394,0.384,0.756,0.736,1.209,1.178l-0.414,0.793    c1.593,1.34,2.919,2.785,4.558,4.399l-8.23-6.82c1.862,2.991,9.587,10.054,12.307,13.243    C80.243,299.336,86.569,306.174,79.845,298.62z" fill="#202020"/><path d="M73.968,290.716c-0.049-0.049-0.13-0.128-0.186-0.184C73.838,290.588,73.919,290.667,73.968,290.716z" fill="#202020"/><path d="M327.863,248.413c-2.263,0.015-2.93,0.217-3.256,0.318l25.477-0.016c-0.798-0.224-8.136-0.501-3.232-0.635    c-2.187-0.248-8.848-0.036-9.813,0.267l1.847-0.342c-5.87,0.438-9.88-0.422-6.053-0.681l-0.495,0.004l-16.257,1.685    C322.048,249.112,320.676,248.434,327.863,248.413z" fill="#202020"/><path d="M67.118,233.937c2.28-2.39,2.51-2.734,2.186-2.528C68.511,232.289,67.767,233.136,67.118,233.937z" fill="#202020"/><path d="M312.28,249.409l-5.093,0.527C309.226,249.794,311.017,249.605,312.28,249.409z" fill="#202020"/><path d="M347.559,241.39c0.011-0.028,0.065-0.053-0.068-0.09l-2.287,0.27c0.035,0,0.045,0,0.059,0    C346.104,241.504,346.861,241.445,347.559,241.39z" fill="#202020"/><path d="M196.681,251.39c-0.547,0.012-1.018,0.022-1.671,0.037C195.618,251.413,196.168,251.401,196.681,251.39z" fill="#202020"/><path d="M416.575,238.376l-11.327,0.507c1.51-0.24-3.954-0.168-1.568-0.448c-0.862,0.038-4.91,0.133-3.807,0.257    l2.312-0.016c-5.973,0.699-2.355,0.968-12.259,1.501c6.148,0.415,8.844,0.035,12.101-0.283c1.104-0.036,2.028-0.066,2.964-0.097    l9.418-0.978L416.575,238.376z" fill="#202020"/><path d="M166.76,163.794l-0.049,0.126C166.778,163.826,166.78,163.799,166.76,163.794z" fill="#202020"/><path d="M166.519,164.428l0.192-0.508C166.36,164.429,164.787,166.154,166.519,164.428z" fill="#202020"/><path d="M314.15,248.956c-0.154,0.13-0.808,0.289-1.87,0.453l3.8-0.396    C315.539,248.998,314.827,248.976,314.15,248.956z" fill="#202020"/><path d="M322.794,247.428l9.542-0.1l3.518-0.363C332.202,247.103,327.932,247.198,322.794,247.428z" fill="#202020"/><path d="M211.752,251.801c-19.765,0.107,4.855-0.823-4.226-1.021c-5.488,0.097-7.424,0.487-10.845,0.61    c15.677-0.334-2.125,1.287,13.686,1.08c-2.249,0.707-11.402,0.771-16.767,0.579c-6.072-0.681,5.306-0.499,6.681-1.167    c-6.344,0.111-5.227,0.235-7.919,0.615c-9.961-0.158-20.611,0.837-26.56-0.107c-7.211,0.15-6.736,0.476-10.883,0.835    c-0.825,0.729,10.725,0.383,13.397,0.957c-0.554-0.062-1.633-0.185-1.32-0.287l6.234,0.153c-5.918-0.254,0.822-0.729,3.985-0.786    c2.3-0.015,6.874-0.047,6.245,0.154l-3.483,0.157c4.484,0.23,9.893-0.532,14.628-0.137c0.248,0.164-1.544,0.241-1.816,0.342    c5.306-0.498,10.422-0.469,18.276-0.821l-4.553,0.723c6.282-0.8,20.508-0.573,30.366-0.15c-1.094-0.123-3.064-0.208-1.881-0.348    c5.791-0.173,10.164,0.323,7.482,0.704c5.657-0.6,21.553,0.505,29.262-0.274l35.445-3.675c-1.327,0.092-2.747,0.167-4.212,0.199    c-3.223-0.635-4.959-0.558,0.688-1.156c-5.543,0.336-3.425,0.846-11.753,0.872c3.267-0.319,4.092-1.048-3.886-1.123    c-19.944,0.634-33.162,2.439-51.789,3.361c-0.688-0.489-15.312-0.352-22.42-0.467c2.713-0.525,7.988-0.675,13.462-0.781    c-3.436-0.018-9.35-0.048-13.737-0.07L211.752,251.801z" fill="#202020"/><path d="M258.063,250.157c-0.498-0.044-1.014-0.068-1.544-0.091C256.801,250.107,257.262,250.138,258.063,250.157z    " fill="#202020"/><path d="M228.945,250.857c0.069-0.019,0.045-0.033,0.069-0.053c-0.574,0.012-1.148,0.025-1.736,0.038    C227.865,250.846,228.529,250.853,228.945,250.857z" fill="#202020"/><path d="M309.477,247.852c1.186-0.117,2.057-0.203,3.242-0.319c-0.729,0.037-1.644,0.083-2.523,0.128    C309.357,247.726,308.957,247.792,309.477,247.852z" fill="#202020"/><path d="M313.465,248.712l-0.632,0.201c0.509,0.017,0.866,0.028,1.316,0.043    C314.287,248.848,314.14,248.757,313.465,248.712z" fill="#202020"/><path d="M136.224,247.378l-1.895,0.106C135.47,247.476,135.962,247.433,136.224,247.378z" fill="#202020"/><path d="M189.735,250.97c6.874-0.047,0.822-0.73,10.546-0.733l-2.854-0.044c6.977-0.313,19.239-0.169,27.529-0.194    c-0.935,0.291,5.027,0.354,4.058,0.805c5.667-0.106,11.279-0.207,14.198-0.672c3.511,0.152,8.844-0.258,13.307-0.065    c-1.884-0.273,6.354-0.924-4.508-0.59c0.877-0.037,0.327-0.1,1.193-0.138c-6.998-0.381-9.803,0.265-15.831,0.274    c-3.604-0.269,5.894-0.435,2.493-0.543c-7.527,0.251-23.62-0.325-23.121,0.69c-5.478,0.071-6.234-0.152-7.867-0.338    c-8.666,1.081-32.158-0.464-32.079,0.918c3.164-0.055,8.318-0.025,12.96-0.321L189.735,250.97z" fill="#202020"/><path d="M297.934,247.923c-0.423-0.004-0.987-0.01-1.338-0.014C296.991,247.913,297.483,247.919,297.934,247.923z" fill="#202020"/><path d="M384.675,251.927l-2.874,0.903c-16.368,0.216-22.286-0.038-36.598-0.002    c-1.093-0.124,0.644-0.202,1.523-0.242c-10.062,0.104-25.115-0.085-32.439,0.33c-3.201-0.007-11.605-0.294-8.425-0.56    c-1.558,0.08-3.339,0.157-5.13,0.128c-0.475-0.324,4.009-0.093,4.112-0.358c-1.42-0.022-1.974-0.085-2.301,0.018    c2.391-0.279-2.479-1.102,8.666-1.081c4.315,0.759-7.73,0.088-5.183,0.925c3.697,0.006,3.267-0.318,3.583-0.42    c4.711,0.019,4.587,0.229,4.336,0.42c1.806-0.26,7.73,0.102,10.224-0.292c9.16-0.065-0.499,0.628,5.484,0.619l3.449-0.848    l9.947,0.16c14.401-0.298-2.06-1.465,14.401-1.944c-2.163,0.442,4.438,1.186,12.1,1.362c-4.583,0.031-13.056,0.584-18.974,0.332    c8.342,0.664-11.481,0.08-7.152,0.84c4.123-0.359,10.996-0.408,16.357-0.214l-1.757,0.078c5.701,0.09,10.017-0.797,17.884-0.458    c3.909-0.027,3.177,0.212,2.489,0.41C381.707,251.906,384.665,251.74,384.675,251.927z M376.157,252.104l-5.229-0.084    C372.169,252.16,374.118,252.156,376.157,252.104z" fill="#202020"/><path d="M131.646,350.267c-0.352-0.383-0.756-0.824-1.075-1.172C130.789,349.369,131.202,349.807,131.646,350.267z    " fill="#202020"/><path d="M365.511,270.199l-3.029-0.028C363.664,270.199,364.634,270.203,365.511,270.199z" fill="#202020"/><path d="M297.52,272.998l-4.426,0.198C294.841,273.183,296.209,273.105,297.52,272.998z" fill="#202020"/><path d="M162.6,372.968l0.204-0.028c0.335-0.082,0.59-0.151,0.938-0.257c0,0-0.281,0.086-0.568,0.154    C162.89,372.914,162.6,372.968,162.6,372.968z" fill="#202020"/><path d="M161.153,271.015c-0.674-0.072-1.431-0.137-2.466-0.188C158.811,270.912,159.732,270.972,161.153,271.015z    " fill="#202020"/><path d="M298.334,272.961c-0.113-0.006-0.179-0.01-0.268-0.016c-0.172,0.017-0.361,0.035-0.547,0.053    L298.334,272.961z" fill="#202020"/><path d="M395.461,272.671c0.649-0.028,1.241-0.054,1.939-0.085C396.486,272.603,395.925,272.635,395.461,272.671z" fill="#202020"/><path d="M391.191,270.267c0.697-0.021,1.364-0.047,1.884-0.084L391.191,270.267z" fill="#202020"/><path d="M445.462,240.084l-4.078,0.122C443.389,240.193,444.586,240.145,445.462,240.084z" fill="#202020"/><path d="M401.984,270.822c0.237-0.039,0.475-0.076,0.633-0.115C402.053,270.734,401.784,270.783,401.984,270.822z" fill="#202020"/><path d="M115.107,330.155c0.066,0.064,0.138,0.134,0.177,0.173l0.143,0.003L115.107,330.155z" fill="#202020"/><path d="M107.222,324.015c-0.843-0.811-1.721-1.655-2.583-2.484C105.577,322.475,106.512,323.374,107.222,324.015z    " fill="#202020"/><path d="M101.909,269.652c-0.267-0.026-0.623-0.061-0.989-0.097c-0.215-0.035-0.436-0.072-0.615-0.102    c-0.367-0.07-0.594-0.142-0.25-0.212c-0.612,0.089-0.827,0.24-0.611,0.345c0.108,0.053,0.319,0.094,0.648,0.108    c0.165,0.008,0.359,0.01,0.587,0.003C101.035,269.684,101.444,269.669,101.909,269.652z" fill="#202020"/><path d="M132.916,340.463c-0.541-0.379-1.174-0.888-1.809-1.401C132.262,340.042,133.271,340.906,132.916,340.463z    " fill="#202020"/><path d="M131.108,339.061c-0.573-0.481-1.186-0.996-1.699-1.428C129.997,338.144,130.57,338.627,131.108,339.061z" fill="#202020"/><path d="M129.38,262.617c0.269,0.059,0.685,0.105,1.249,0.121C130.463,262.623,130.012,262.598,129.38,262.617z" fill="#202020"/><path d="M102.688,319.387c-0.597-0.312-11.924-11.019-2.731-1.679c-0.802,0.087-6.151-5.739-8.731-8.1    c1.69,1.898-1.178-0.607-0.792,0.097c1.279,1.171,2.863,2.5,4.857,4.558c0.728,1.134-2.483-1.802-4.807-4.277    c2.722,3.191-4.104-3.399-0.1,0.965c9.102,8.789,15.585,14.95,22.524,20.591c-5.206-4.992-11.042-10.564-15.045-14.926    l2.143,1.374c4.388,5.065,7.559,7.73,12.171,12.415l-10.238-10.647c-4.572-5.213-1.226-2.014,2.7,1.773    C103.696,320.578,102.861,319.696,102.688,319.387z" fill="#202020"/><path d="M113.099,323.049l-0.164-0.186c-0.167-0.14-0.365-0.32-0.479-0.401L113.099,323.049z" fill="#202020"/><path d="M446.216,251.093l-1.27,0.206C446.006,251.206,446.332,251.142,446.216,251.093z" fill="#202020"/><path d="M117.466,331.141l-0.007-0.007C117.533,331.201,117.55,331.218,117.466,331.141z" fill="#202020"/><path d="M458.694,259.157c0.004-0.025,0.006-0.052,0.019-0.091C458.688,259.117,458.7,259.128,458.694,259.157z" fill="#202020"/><path d="M455.32,272.588c0.098,0.023,0.126,0.046,0.354,0.064C456.789,272.546,456.243,272.582,455.32,272.588z" fill="#202020"/><path d="M458.724,259.199c-0.013-0.011-0.031-0.014-0.03-0.042C458.699,259.177,458.695,259.21,458.724,259.199z" fill="#202020"/><path d="M310.122,262.912c0,0,0.484,0.094,1.248,0.184C311.666,263.045,311.37,262.986,310.122,262.912z" fill="#202020"/><path d="M340.419,263.718c0.192,0.021,0.307,0.033,0.554,0.06L340.419,263.718z" fill="#202020"/><path d="M109.075,272.101c1.5,0.008,2.624-0.006,3.573-0.029C111.554,272.058,110.371,272.06,109.075,272.101z" fill="#202020"/><path d="M458.712,259.066c0.047-0.159,0.144-0.359,0.257-0.693C458.843,258.74,458.744,258.932,458.712,259.066z" fill="#202020"/><path d="M263.928,265.66c0.323-0.021,0.626-0.039,0.932-0.059c-0.186-0.01-0.371-0.019-0.553-0.027L263.928,265.66    z" fill="#202020"/><path d="M248.117,265.26c0.54-0.061,0.788-0.125,1.09-0.182c-5.643,0.227-16.01-0.02-17.238,0.56    c1.916-0.015,11.843,0.325,10.151,0.665c3.934-0.145,9.748,0.261,11.867,0.166c-6.458-0.316-0.698-0.488,3.662-0.684    c3.965,0.168-0.746,0.465,2.668,0.572l9.174-0.064l-7.991-0.076l2.428-0.557c-0.296,0.02-0.498,0.033-0.814,0.053    C249.593,265.972,261.965,264.898,248.117,265.26z" fill="#202020"/><path d="M249.208,265.078c0.846-0.035,1.588-0.077,2.166-0.137C250.098,264.951,249.603,265.008,249.208,265.078z" fill="#202020"/><path d="M193.97,264.16c-0.695,0.026-1.448,0.054-2.394,0.089C192.028,264.232,193.073,264.193,193.97,264.16z" fill="#202020"/><path d="M342.635,247.058c0.237,0.164,8.115,0.502,7.975,0.074c-2.339-0.044-4.694-0.089-7.06-0.134    L342.635,247.058z" fill="#202020"/><path d="M108.215,292.159l-1.857-1.873c-0.151-0.116-0.296-0.229-0.409-0.315    C106.283,290.394,107.567,291.567,108.215,292.159z" fill="#202020"/><path d="M239.686,266.504c1.444-0.066,2.087-0.133,2.435-0.201C241.185,266.336,240.323,266.391,239.686,266.504z" fill="#202020"/><path d="M107.845,293.228c0.704,0.877,1.737,2.173,1.787,2.454c1.614,1.619,2.908,2.596,4.611,4.186    C112.342,298.054,110.223,295.875,107.845,293.228z" fill="#202020"/><path d="M114.383,299.996c-0.048-0.044-0.096-0.089-0.139-0.128C114.292,299.912,114.335,299.952,114.383,299.996z    " fill="#202020"/><path d="M337.948,246.876c-0.678,0.029-1.376,0.059-2.095,0.09l1.091-0.114c-1.813-0.043-3.614-0.086-5.42-0.13    c-0.653,0.02-1.361,0.042-2.231,0.068c0.351-0.015,0.623-0.061,0.791-0.107c-0.588-0.017-1.162-0.033-1.736-0.05    c-4.315,0.443-15.055,0.767-18.152,1.027c-4.099,0.189-9.116,0.297-12.262,0.263c2.916,0.009,6.787-0.08,5.625-0.325    c-5.921-0.255-8.799-0.99-19.019-0.358l5.993-0.01l-13.476,0.951c-4.722-0.394,6.726-0.474,8.597-0.817    c-10.481,0.469-19.198-0.783-24.057,0.04c-0.685-0.488-1.833-1.303-8.71-1.254c4.959,0.557-4.123,0.358-0.055,0.954    c-2.376,0.279-7.672-0.176-8.067,0.189l0.643-0.202c-11.743-0.773-15.587,0.438-20.611,0.837    c-14.06,0.199-20.518-0.117-31.985-0.035c-0.451-0.327-3.573-1.227-8.174-1.192c-2.139,0.442-12.517,0.647-13.575,1.215    c8.225,0.236,6.729-0.476,11.653-0.608c4.099,0.595,0.371,0.588,5.969,0.943c-4.519-0.231-20.415,0.31-25.363-0.248l1.747-0.078    c-7.898-0.339-9.408-1.741-22.567-0.893l-6.279,0.348c0.302-0.057,0.337-0.123,0.499-0.174    c-10.278-0.059-7.472-0.704-18.819-0.195c0.877-0.039,0.327-0.102,1.217-0.14c-6.468-0.318-12.991,0.321-17.881,0.455    c-1.631-0.236-1.438-0.353-0.559-0.453c0.83-0.1,2.179-0.184,3.114-0.355c-7.873-0.125-16.834,0.216-25.422,0.629    c2.12-2.434,3.993-4.583,5.514-6.329l6.577-6.185c-1.708,1.847-3.45,3.834-4.496,5.141c-1.055,1.316-1.427,1.965-0.672,1.412    c2.84-2.975,1.964-2.415,6.458-6.78c-0.435,0.863-1.896,2.723-3.139,4.503c2.204-2.025,3.267-3.094,3.837-3.752    c0.563-0.651,0.599-0.858,0.57-0.982c-0.028-0.124-0.12-0.166,0.223-0.521c0.34-0.354,1.127-1.035,2.74-2.319    c2.625-2.617,3.835-4.451,3.864-4.997l5.086-4.411c0.199-0.856,6.042-6.738,9.834-10.629c0.328-0.611-3.443,2.742-4.773,4.326    c0.029-0.545,3.995-4.754,6.628-7.377c1.652-0.273,17.11-17.31,14.815-13.39c5.823-5.985,12.825-13.18,19.332-19.867    c3.25-3.346,6.378-6.564,9.172-9.44c1.388-1.447,2.694-2.808,3.891-4.056c0.595-0.627,1.163-1.227,1.7-1.794    c0.268-0.285,0.528-0.562,0.78-0.83c0.218-0.24,0.413-0.473,0.591-0.71c0.543-0.563,1.123-1.385,1.509-2.303    c0.403-0.912,0.606-1.897,0.69-2.672c0.076-0.775,0.066-1.34,0.118-1.461c0.042-0.121,0.226,0.191,0.329,1.228    c0.063-3.168-1.515-5.79-3.518-7.293c-2.017-1.533-4.45-2.038-6.673-1.71c-1.115,0.164-2.188,0.535-3.164,1.098    c-0.488,0.281-0.952,0.61-1.385,0.985c-0.215,0.189-0.425,0.387-0.627,0.597c-0.23,0.24-0.463,0.483-0.697,0.728    c-1.895,1.975-3.961,4.059-6.367,6.37c-0.867,0.694,4.259-4.271,3.693-4.166c-5.891,6.443-11.511,10.927-20.895,20.68    c1.597-1.622,1.924-2.234,2.077-2.529c0.282-0.053-3.683,4.157-6.048,6.744c-1.45,1.331,1.771-1.936,0.902-1.243    c-18.816,18.146-31.962,33.168-50.377,51.521c5.259-5.241,6.789-7.685,6.659-7.928l-5.151,5.134    c-1.755,2.211-5.617,6.072-8.677,9.473c-0.481,0.31-2.144,1.788-0.649,0.077c-4.088,3.732-7.258,7.067-10.339,10.459    c-1.531,1.705-3.059,3.406-4.659,5.188c-0.804,0.888-1.625,1.795-2.474,2.733c-0.229,0.239-0.38,0.451-0.577,0.679    c-0.131,0.152-0.292,0.411-0.431,0.617c-0.065,0.101-0.162,0.237-0.195,0.313l-0.225,0.411c-0.13,0.228-0.224,0.484-0.339,0.751    c-0.071,0.198-0.145,0.406-0.22,0.616l-0.091,0.286l-0.017,0.057l-0.004,0.014l-0.002,0.007l0,0.002l0,0.001l0,0    c0.009-0.034-0.021,0.076,0.021-0.075v0l-0.001,0.006l-0.011,0.048l-0.041,0.176c-0.045,0.203-0.09,0.408-0.136,0.615    c-0.025,0.196-0.051,0.404-0.078,0.613c-0.027,0.364-0.047,0.867-0.035,1.269c0.004,0.199,0.016,0.399,0.041,0.601    c0.034,0.225,0.068,0.45,0.103,0.679c0.171,0.825,0.438,1.628,0.903,2.489c0.095,0.165,0.193,0.336,0.293,0.511    c0.114,0.175,0.2,0.286,0.388,0.548l-0.43-0.505c-0.117-0.166-0.234-0.332-0.325-0.513c-0.991-1.463-1.515-3.232-1.288-5.118    c-0.029-0.225-0.058-0.45-0.026-0.664c0.018-0.199,0.045-0.397,0.082-0.645l0.027-0.179l0.007-0.047l0.002-0.012v-0.003    c-0.006,0.022,0.015-0.053-0.014,0.05l0-0.001l0.001-0.004l0.003-0.017l0.013-0.068c0.012-0.08,0.046-0.209,0.119-0.3    c0.039-0.202,0.115-0.477,0.193-0.665c0.248-0.739,0.644-1.45,1.069-2.086c0.428-0.604,1.067-1.301,1.638-1.953l3.491-3.97    l-4.048,3.407l6.212-7.05c-4.209,3.708-7.073,7.725-7.892,7.873c0.737-0.956,2.786-2.925,2.663-3.181    c-1.538,1.45-2.473,2.343-3.23,3.242c-0.424,0.491-0.679,0.932-0.986,1.436c-0.216,0.41-0.489,0.961-0.684,1.513    c-0.079,0.235-0.167,0.495-0.26,0.771c-0.033,0.107-0.066,0.218-0.101,0.331l-0.062,0.216l-0.037,0.17    c-0.053,0.246-0.109,0.506-0.169,0.782l-0.002,0.014l0.001-0.014c0.028-0.231,0.073-0.476,0.111-0.704    c0.025-0.204,0.125-0.587,0.196-0.818c0.075-0.259,0.137-0.462,0.249-0.781c0.132-0.342,0.261-0.712,0.453-1.065l0.251-0.491    c0.133-0.228,0.226-0.363,0.347-0.55l0.356-0.527c0.167-0.219,0.268-0.331,0.408-0.503c0.264-0.33,0.525-0.608,0.792-0.905    c1.079-1.171,2.22-2.412,3.403-3.697c2.384-2.553,4.967-5.255,7.554-7.935c5.187-5.346,10.336-10.653,14.009-14.438    c1.195-1.305-0.901,1.24-1.051,1.534c3.218-3.264,5.381-4.989,9.339-9.191c2.237-2.833-2.15,1.713-4.192,3.692    c0.02-0.537,1.046-1.533,3.247-3.812c0.83-0.139,12.414-12.169,15.719-14.632c11.856-12.073-2.804,1.016,9.025-10.513l3.882-3.093    c6.477-7.087,14.975-16.127,22.732-23.715l-1.604,1.63c-0.909,1.246,0.975-0.43,1.849-1.131    c5.967-5.629,10.698-11.319,14.606-14.437c0.78-0.874,1.624-1.82,2.519-2.823c0.226-0.25,0.454-0.502,0.685-0.758    c0.211-0.234,0.559-0.602,0.865-0.876c0.64-0.59,1.363-1.129,2.157-1.588c3.159-1.865,7.535-2.273,11.308-0.579    c3.787,1.623,6.674,5.285,7.424,9.313c0.825,4.016-0.44,8.154-2.729,10.889c-0.79,0.584-0.354,0.036,0.496-1.329    c0.84-1.358,1.926-3.75,2.014-6.565c0.143-2.798-0.823-5.884-2.49-8.031c-1.63-2.182-3.742-3.393-5.023-3.845    c0,0,0.692,0.293,1.627,0.914c0.933,0.619,2.078,1.597,2.974,2.795c0.911,1.187,1.565,2.555,1.897,3.624    c0.346,1.067,0.439,1.812,0.439,1.812c-0.303-1.823-0.966-3.285-1.715-4.435c-0.754-1.153-1.6-2.005-2.453-2.67    c-1.722-1.314-3.473-1.98-5.549-2.222c2.408,0.556,4.216,1.672,5.573,2.898c1.361,1.234,2.33,2.605,3.007,4.099    c0.669,1.495,1.07,3.127,1.059,4.977c-0.026,1.835-0.455,3.941-1.777,6.054c0.115-0.386-0.007-0.292-0.511,0.32    c-0.257,0.301-0.611,0.734-1.134,1.25c-0.446,0.439-1.002,0.985-1.677,1.649l-0.403,1.095c-0.077,0.021-0.395,0.286-1.231,1.078    l-9.964,10.387c2.308-2.011,2.713-1.815,5.345-4.439c-1.14,0.737,1.049-1.533,3.686-4.158c-2.079,2.531,2.756-2.375,2.886-2.132    c-5.283,5.265-11.716,11.791-15.079,15.343l-1.441,0.805c-5.106,4.945-10.236,10.431-13.738,13.747l0.906-1.244    c-6.127,5.933-11.86,12.076-17.524,17.119c-5.015,5.742-11.483,12.817-15.499,17.594c-0.465,0.662-1.643,1.883-3.24,3.448    c-0.805,0.777-1.707,1.647-2.674,2.58c-0.243,0.232-0.491,0.468-0.742,0.707l-0.365,0.346l-0.193,0.175    c-0.264,0.239-0.534,0.483-0.809,0.731c-1.108,1.003-2.354,2.147-3.466,3.239c-1.107,1.087-2.069,2.109-2.48,2.74    c0.281-0.033,0.534-0.063,0.775-0.091c0.041,0.019-0.287,0.066-0.865,0.128c0.282-0.487,1.216-1.747,1.783-2.531    c-1.273,1.207-1.98,2.155-2.541,2.845c1.276-0.086,2.049-0.102,1.979,0.194c-1.126-0.034-1.875-0.043-2.363-0.035    c0.911-0.945,0.001-0.262-0.844,0.35c0.161,0.12,0.25,0.242-0.763,0.316c0.05-0.066,0.137-0.168,0.252-0.296l-0.323,0.326    c3.768-0.018,7.742-0.128,9.548-0.338c-2.938,0.002-2.136-0.209-1.49-0.388c0.636-0.179,1.223-0.325-1.518-0.191    c1.191-0.128,2.355-0.238,3.485-0.327c0.546-0.038,1.105-0.077,1.674-0.117c0.272-0.015,0.546-0.031,0.822-0.046l0.658-0.02    l0.875-0.018c4.681-0.091,9.544-0.092,14.078,0.007c-0.089,0.264,1.028,0.387,4.408,0.496l2.727-0.383    c4.244,0.069-8.204,0.453,0.337,0.589c8.789-0.655,26.467,0.372,30.314-0.839c6.698,0.478-12.747,0.484-2.651,1.07    c-5.873,0.438-13.974-0.063-15.91,0.541c5.756-0.172,2.101,0.511,5.814,0.517l6.42-0.373l-1.42-0.023    c10.773-0.571,27.842-0.297,41.6-0.394c11.654-0.609,19.676-1.489,33.654-1.423c-4.126,0.357,11.608,0.344,2.809,0.999    c6.468,0.315,12.854-0.058,12.981-0.322c-5.691-0.091-2.001-0.085-6.795-0.215c3.236-0.32,10.694-0.306,13.758-0.097    c-1.42-0.023-0.88,0.038-1.193,0.139c6.795,0.215,3.256-0.318,8.167-0.452c1.558,0.448,10.841,0.12,15.326,0.352l6.502-0.639    c-3.572,0.42,6.231,0.153,7.256,0.54c4.663-0.296,8.572-0.816,15.673-0.703c-2.933,0.219,6.479,0.316,6.603,0.742    c12.158,0.408,20.136-1.162,31.651-0.552c-0.357,0.1-2.682,0.38,0.685,0.487c2.651-0.119,7.293-0.069,10.13-0.115l-0.089,0.012    c0.055-0.004,0.089-0.007,0.147-0.012c1.39-0.023,2.263-0.076,2.297-0.179c4.855-0.417,7.359-0.844,16.915-1.197    c-0.702-0.488-8.769-0.299-12.263-0.142l-3.019,0.481c-2.885-0.736-8.617,0.128-10.814-0.12    c5.732-0.863,22.241-0.651,32.144-1.182c-6.038-0.68-19.173-0.786-30.634-0.704l5.048,0.292l-5.997,0.009l5.805,0.519    c-5.681-0.091-10.591,0.042-15.726,0.013c6.011-0.01,8.353,0.663,4.952,0.557c-6.698-0.479-6.98,0.313-12.101,0.283    c2.851,0.044,6.558,0.053,4.168,0.332c-10.096-0.586-12.823-0.204-22.004-0.83c1.139,0.813-11.471,0.081-12.847,0.748l4.261,0.068    l-9.037,0.492c-8.338-0.663,7.383-0.675-5.306-1.144c-11.708-0.082-11.405,0.772-20.61,0.836    c3.032-0.482,10.333-0.896,17.76-0.882l-4.497-0.232c2.379-0.279,12.653-0.221,17.78-0.192c-8.473,0.553,3.965,0.17,7.819,0.603    c0.709-0.467-4.731-0.394,1.692-0.768c-6.018,0.009-6.898,0.048-14.553-0.128c16.547,0.212,14.879-1.618,29.321-1.227    c-6.657,0.211,2.321,0.673,3.122,0.899c3.133-0.056,9.487-0.167,12.101-0.284l-2.366-0.674c8.415-0.291,11.338,1.136,21.048,0.441    c1.262-0.403-8.541-0.137-6.795-0.215c13.287-0.423,18.073,0.662,29.871,1.169c0.667-0.202,0.53-0.629,4.656-0.985    c-1.297,0.404,1.757,0.611-2.885,0.907c3.943,0.171,8.617-0.126,12.097-0.283c-8.211-0.237,3.359-0.581,4.872-0.823    c4.254,0.068-1.296,0.403-3.913,0.521c3.415,0.108,7.473,0.704,9.412,0.099c0.134,0.426-9.546,1.12-15.876,1.23l4.267,0.068    c-2.939,0.218-3.49,0.156-7.727,0.09c4.147,0.33,3.738,0.694,2.771,0.998c-0.543-0.062,0.303-0.101-0.216-0.162    c-3.411-0.108-6.028,0.008-5.237,0.234c-3.067,0.572,4.731,0.357,7.042,0.643c1.747-0.039,3.494-0.077,5.206-0.114l17.723-1.837    c7.571-0.214,10.976,0.226,16.663,0.503l1.562-0.491c6.588,0.051,12.805,0.206,8.582,0.828c-0.236-0.164-1.106-0.125-2.537-0.148    c-0.189,0.066-0.52,0.114-0.936,0.152c-0.136,0.036-0.213,0.056-0.326,0.086c7.056-0.167,11.46-0.271,11.866-0.28    c-11.98,0.713-0.599,0.892-2.603,1.763l12.1-0.284c-7.334-0.276-0.134-0.426,2.469-0.544c0.18,0.123,0.879,0.184,1.893,0.208    c0.565,0.007,1.218,0.017,1.929,0.026c0.915,0.038,1.91,0.161,2.922,0.405c2.025,0.481,4.091,1.488,5.724,2.826    c1.645,1.328,2.846,2.95,3.551,4.323l-0.309-0.348c0.674,1.248,1.293,2.842,1.596,4.653c0.306,1.809,0.288,3.807-0.172,5.791    c-0.453,1.981-1.354,3.901-2.566,5.498c-1.206,1.604-2.706,2.89-4.229,3.794c0.186-0.035-1.563,1.432-4.389,2.249    c-0.698,0.208-1.455,0.359-2.229,0.464l-0.574,0.067l-0.385,0.056c-0.257,0.036-0.513,0.073-0.766,0.109    c-1.009,0.15-1.968,0.294-2.724,0.406c1.051,0.029,1.893,0.052,2.562,0.07c0.721,0.028,1.256,0.05,1.646,0.065    c1.158,0.015,1.465,0.001,1.38,0.073c-0.163,0.152-1.92,0.343-1.369,0.469c-0.47-0.004-1.128-0.009-1.693-0.013    c-0.522,0.003-0.959,0.017-1.051,0.048c-1.203,0.14,1.634,0.186,1.871,0.348c0.387-0.009,1.556-0.025,2.446-0.148    c0.938-0.114,1.869-0.317,2.772-0.589c1.809-0.542,3.504-1.392,4.983-2.463c2.977-2.135,5.058-5.163,6.057-8.239    c1.022-3.096,0.976-6.101,0.419-8.518c-0.555-2.438-1.607-4.259-2.511-5.403c1.009,1.948,1.698,3.688,2.134,5.583    c0.412,1.888,0.572,3.945-0.065,6.356c0.282-1.771,0.327-3.666,0.004-5.658c-0.321-1.991-1.028-4.071-2.226-6.023    c-1.201-1.943-2.886-3.769-5.079-5.154c-2.177-1.391-4.89-2.322-7.802-2.428c0,0-0.236-0.031-0.591-0.077    c-0.229-0.039-0.532-0.09-0.837-0.142c-0.608-0.103-1.217-0.205-1.217-0.205l-7.473,0.222c3.119-0.217,1.242-0.646,9.082-0.728    c-1.001-0.387-7.775,0.088-12.575-0.042l-2.455,0.544c0.945-0.303-9.329-0.362-2.029-0.776l11.877-0.445l-3.301-0.372    c0,0,2.51-0.026,5.021-0.052c1.255-0.013,2.51-0.026,3.451-0.036c0.335-0.007,1.199-0.005,1.657,0.031    c0.487,0.031,0.765,0.062,0.765,0.062s-0.264-0.014-0.659-0.015c-0.368-0.009-0.979,0.016-1.378,0.047    c-0.593,0.07-1.185,0.141-1.185,0.141c0.252-0.005,0.497-0.011,0.736-0.016l0.353-0.007c0.159,0,0.316-0.001,0.471-0.001    c0.788,0,1.538,0.067,2.242,0.159c1.409,0.191,2.631,0.542,3.676,0.934c2.092,0.8,3.479,1.759,4.467,2.557    c1.951,1.649,2.464,2.606,3.02,3.475c0.504,0.908,1.087,1.78,2.028,4.095c0.443,1.164,0.952,2.722,1.17,4.874    c0.195,2.12,0.136,4.923-1.146,8.188c-0.703,2.069-1.857,4.058-3.516,5.815c-1.657,1.747-3.831,3.294-6.557,4.256    c-1.357,0.484-2.849,0.814-4.43,0.931c-0.395,0.037-0.794,0.041-1.199,0.051c-0.236,0.002-0.477,0.003-0.72,0.004    c-0.472,0-0.956,0-1.454,0c-1.991-0.021-4.198-0.045-6.687-0.072c7.2-0.146,0.739-0.465,3.449-0.846    c-7.345-0.275-9.824,0.268-13.634,0.525c-1.871-0.349-3.201-0.633,3.359-0.582c0.821-0.73-8.631,0.125-9.229-0.625    c-21.735,0.021-17.416,2.426-42.824,1.486l0.953-0.303c-16.134,0.377-25.442,0.016-40.383,0.254l-11.764-0.77    c2.631-0.119,9.704-0.694,6.402-1.066c5.722,0.779,11.795,0.508,17.96,0.926c0.629-0.203-1.881-0.35-2.975-0.475    c3.721,0.008,5.588,0.357,10.502,0.222c-0.237-0.161-5.599-0.354-1.558-0.448l6.685,0.479c8.943-0.229,4.404-1.147,14.909-0.928    c-1.953,0.428-5.941,1.047-10.01,1.15c4.801,0.092-6.399,0.258-2.019,0.514c6.915-0.633,10.254-0.131,19.449-0.528    c-1.08,0.089-1.365,0.212-3.628,0.251l13.342,0.268c-3.301-0.37,11.021-0.406,9.779-0.957    c-14.219-0.229-10.041,0.104-26.243-0.209c4.587-0.125,10.501-0.686,13.272-1.201c0.142,0.021,0.375,0.039,0.874,0.049    c2.476-0.545-0.049-0.691,0-1.645c-7.396,0.678-12.342,0.121-21.065,0.511c-1.64,0.522,5.062,0.665,9.398,0.53l-7.686,0.346    l1.513-0.24l-19.507-0.174c3.696-0.028,4.951-0.331,6.881-0.559c-2.518-0.021-5.011-0.158-7.661-0.311    c0.557,0.498,0.206,0.85-2.249,0.841c-12.551-0.118-19.528-0.565-24.159-1.135c-0.481,0.012-1.025,0.024-1.462,0.035    c2.104,0.511-8.913,0.917-12.802,1.438c0.192-0.527-6.468-0.316-10.085-0.586c-1.926,0.605,0.643,1.441,5.048,1.938    c8.486-0.555,4.755-0.559,8.765-1.345l13.613-0.524l-3.043,0.484c6.794,0.213,13.321-0.426,12.822,0.203    c-3.59,0.419-9.519,0.164-13.08,0.585l4.494,0.229c-7.93,0.618-4.064-0.594-13.665-0.164c3.531,0.535-0.87,0.039-4.982,0.396    c3.301,0.373,16.904-0.152,14.019,0.756c-4.992,0.396-16.797-1.064-23.402-0.161l0.323-0.103c-9.745-0.117-13.17,0.4-16.818,0.727    c-4.147-0.293-9.872,0.121-14.366,0.153l0.109-0.265l-6.341,0.111c3.02-0.482,7.432,0.012,12.878-0.058l-0.678-0.491    c6.279,0.583,10.468-0.303,15.336-0.725c-7.087,0.424-20.012-0.121-21.677,0.838l-4.384-0.494l-2.098,0.178    c-3.267-0.371,0.069-0.955,6.402-1.066c1.101,0.125,1.651,0.186,1.317,0.289c2.94-0.22,5.64-0.601,12.754-0.488l-3.797,0.26    c8.858,0.035,16.911-0.154,19.944-0.637c-12.788-0.204-25.363-0.248-37.37-0.225c-3.542,1.108-7.744,1.73-9.55,2.762    c-8.057,0.189-18.994,0.332-25.992-0.045l0.643-0.203c-3.414-0.105-6.561-0.051-9.184,0.066c-3.607-0.27,2.469-0.545-0.045-0.691    l-11.54,0.346c0.712-0.467,10.422-0.469,15.034-0.502c-0.87,0.04-2.627,0.117-2.063,0.18c5.364,0.192,15.356-0.602,17.702,0.072    c2.613-0.117-5.309,0.498,3.539,0.533c5.925,0.255,7.854-0.352,8.473-0.553c0.096-0.266-9.298-0.363-6.038-0.682    c-4.611,0.033-6.448,0.375-12.345,0.119c4.57-0.031,10.776-0.568,13.211-0.157c9.037-0.493,7.74-1.733,3.479-1.802    c1.015,0.389-16.484,0.479-4.635,0.986c-5.323,0.5-15.047,0.504-22.01,0.815l0.316-0.101l-8.645,0.125    c1.217-0.139,3.831-0.256,3.917-0.52l-11.973,0.709c6.74-0.477-4.178-0.33-7.245-0.541c-1.282,0.404-5.959,0.701-1.472,0.932    c5.044,0.294,2.937-0.219,7.524-0.25l-6.496,0.639l-0.557-0.063l-3.91,0.521c-8.847-0.037,3.865-1.213-7.472-0.702l1.476,0.711    c-13.125-0.104-29.981-0.905-39.255-0.577c2.559-0.404,3.687-1.055,0.169-1.439c3.999,0.122,12.035,0.097,17.771,0.029    c1.104,0.126-7.166,0.842-13.397,0.688c3.019,1.164,15.673-0.703,16.406,0.477c15.876,0.412,11.842-1.137,25.318-0.443    c0.186-0.527,3.831-0.258,4.539-0.723c-3.989-0.859-18.015,0.029-26.759-0.271c0.856-0.037,2.579-0.117,2.916-0.217    c-6.251-0.154-8.834-0.037-13.201,0.158l0.55,0.063c-7.63,0.516-4.721-0.393-9.212-0.625c-1.74,0.078-7.984-0.074-6.98,0.313    l-8.132-0.5l0.392,0.588c-4.587,0.035-5.591-0.354-9.748,0.004l-0.193,0.527l11.392,0.183c-5.773,0.173-1.609,0.505-7.953,0.614    c7.087-0.576-5.014-0.291-5.712-0.78l-4.666,0.296l1.193-0.14c-3.662-0.271-4.36,0.196-8.634,0.127    c5.041,0.294,8.342,0.663,14.765,0.29c-4.676,0.295-13.95,0.623-16.227,0.641c-4.91,0.221-8.339-0.18-12.933-0.24    c8.816-0.211-3.088-1.596,14.58-1.218c-0.327,0.101-1.757,0.078-2.311,0.017c2.355,0.672,10.591-0.043,14.421-0.3    c-0.987-0.388,3.019-0.483-3.772-0.698c2.229,0.248-5.722,0.864-12.183,0.547l1.138-0.83l-9.408-0.098l0.88-0.039    c-1.769-0.267-4.278-0.241-7.155-0.188c-1.438,0.021-2.969,0.044-4.544,0.067c-0.788-0.004-1.586-0.009-2.391-0.013l-1.112-0.029    l-0.735-0.049c-1.382,0.148-4.675,0.164-6.901,0.25c-1.108,0.044-1.925,0.104-2.062,0.209c-0.146,0.104,0.417,0.253,1.807,0.47    c-0.785-0.104-1.501-0.161-2.134-0.185c0.709,0.773,1.72,1.661,2.709,2.496c0.999,0.844,1.974,1.632,2.848,2.442    c0,0-0.512-0.631-1.023-1.262c-0.454-0.574-0.907-1.147-0.907-1.147c1.913,1.494,2.339,1.846,2.853,2.223    c0.243,0.175,0.481,0.33,0.819,0.518c0.168,0.093,0.36,0.193,0.579,0.298c0.106,0.048,0.222,0.101,0.348,0.158    c0.06,0.024,0.123,0.051,0.188,0.078s0.092,0.014,0.326,0.206c0.375,0.695,1.422,2.007,0.179,1.101    c8.851,8.913,21.37,21.764,27.061,26.494c6.235,6.287,6.527,7.96,15.583,16.474c1.933,1.768-0.894-1.99,4.753,3.994    c0.348,0.436-6.034-5.165,0.49,1.267c5.063,4.161,10.585,11.083,16.977,16.693c1.503,1.665,3.644,3.856,5.222,5.533    c0.395,0.428,0.757,0.819,1.07,1.158c0.457,0.499,0.808,0.949,1.043,1.304c0.473,0.709,0.527,0.99,0.089,0.577    c-0.384-0.521-0.8-1.039-1.269-1.521c-0.339-0.348-0.684-0.701-1.034-1.06c-0.674-0.68-1.364-1.376-2.055-2.073    c-1.396-1.382-2.794-2.768-4.07-4.03c-2.568-2.508-4.676-4.492-5.302-4.948c0.908,0.478-3.361-3.777,0.503-0.245    c-7.316-7.856-5.145-4.703-11.766-11.692c-0.612-0.326,3.104,3.894,4.69,5.225c-0.456,0.519-13.655-13.184-8.19-6.55    c7.23,7.314,10.406,8.458,16.195,15.273c-2.823-2.229-6.523-6.432-10.244-9.13l4.983,5.375l4.111,3.407l-0.295-0.152    c4.351,4.797,6.591,6.787,8.798,8.569c0.555,0.442,1.102,0.878,1.681,1.34c0.289,0.231,0.586,0.469,0.896,0.717    c0.159,0.13,0.321,0.264,0.487,0.4c0.21,0.192,0.434,0.384,0.643,0.603c0.854,0.854,1.702,1.937,2.41,3.341    c0.706,1.399,1.267,3.134,1.399,5.201c-0.021-2.403-0.339-3.475-0.287-3.864c0.017-0.391,0.273-0.096,0.531,0.301    c0.258,0.395,0.503,0.893,0.601,0.809c0.079-0.079,0.124-0.782-0.536-2.674c1.196,2.836,1.428,5.783,1.053,8.313    c-0.38,2.543-1.348,4.676-2.415,6.231c-1.07,1.566-2.195,2.578-3.032,3.171c-0.841,0.594-1.391,0.788-1.502,0.661    c2.192-1.653,3.371-3.392,4.122-4.744c0.73-1.375,1.031-2.393,1.201-3.084c0.311-1.394,0.179-1.517,0.108-1.583    c-0.095-0.068-0.158-0.093-0.122-1.268c0.006-0.586,0.027-1.466-0.141-2.761c-0.178-1.283-0.539-3.02-1.642-5.047    c0.523,1.416-0.167,0.52-0.41,0.539c-0.129,0.007-0.128,0.22,0.098,1.025c0.191,0.807,0.698,2.235,0.676,4.756    c0.04,1.419-0.14,2.434-0.269,3.135c-0.151,0.702-0.237,1.1-0.28,1.3c-0.069,0.402,0.151,0.022,0.35-0.38    c0.194-0.401,0.359-0.822,0.292-0.419c-0.041,0.2-0.131,0.61-0.39,1.308c-0.264,0.691-0.698,1.684-1.571,2.911    c-0.473,0.536-1.018,1.023-0.816,0.649c-1.699,2.135-3.22,2.936-4.809,3.604c-0.813,0.319-1.684,0.593-2.768,0.801    c-1.083,0.204-2.385,0.369-4.063,0.258c0,0,0.398,0.021,0.796,0.009c0.397-0.001,0.791-0.037,0.791-0.037    c-2.046-0.136-3.566-0.594-4.804-1.06c-1.231-0.489-2.199-0.995-3.072-1.582c-0.435-0.295-0.854-0.604-1.254-0.96    c-0.169-0.152-0.341-0.307-0.518-0.466c-0.152-0.145-0.309-0.293-0.471-0.446c-0.642-0.624-1.349-1.373-2.204-2.39    c1.136,1.859-2.811-2.217-5.359-4.313c1.83,1.966,3.128,3.593,4.909,5.66c0.45,0.514,0.926,1.057,1.442,1.646    c0.262,0.291,0.535,0.593,0.818,0.908c0.11,0.127,0.363,0.383,0.591,0.61c0.234,0.228,0.483,0.451,0.743,0.674    c2.073,1.755,5.182,3.321,9.162,3.362c0.953-0.209,1.124-0.383,1.844-0.591c0.361-0.104,0.847-0.245,1.618-0.468    c0.761-0.242,1.808-0.591,3.161-1.336c0,0-0.535,0.295-1.387,0.63c-0.85,0.335-2.026,0.686-3.235,0.843    c-1.207,0.168-2.432,0.16-3.34,0.063c-0.91-0.091-1.506-0.233-1.506-0.233c2.079,0.356,3.706,0.233,5.554-0.171    c0,0,0.571-0.084,1.409-0.305c0.837-0.223,1.932-0.628,2.955-1.183c1.03-0.545,1.97-1.246,2.622-1.824    c0.656-0.576,1.042-1.015,1.042-1.015c-1.937,2.245-3.68,3.188-4.774,3.785c-1.123,0.578-1.692,0.816-2.042,1.015    c-0.352,0.2-0.497,0.328-0.874,0.518c-0.38,0.166-0.993,0.428-2.348,0.588c-2.937,0.044-4.952-0.634-6.397-1.21    c-1.446-0.613-2.364-1.188-3.133-1.72c-0.38-0.272-0.729-0.533-1.066-0.822c-0.173-0.141-0.339-0.292-0.509-0.451    c-0.141-0.134-0.286-0.272-0.44-0.42c-0.479-0.472-1.055-1.057-1.885-1.933c0.763-0.077-9.742-11.179-15.718-17.695    c0.964,0.977,2.209,2.235,2.881,2.915c4.802,4.272-2.771-3.472-2.824-3.755l-3.517-3.097c0.651,0.593,1.61,1.355,0.259-0.114    c-4.554-4.398-4.71-3.722-9.258-8.112c-0.104-0.566,4.025,2.861,1.368-0.04c-0.756-1.159-3.271-4.747-9.413-10.48    c-0.509-0.333-2.098-1.822-3.92-3.568c0.26,0.235,0.581,0.537,0.709,0.633l-3.691-4.196c3.754,2.966,6.609,6.982,10.382,9.964    l0.662-0.088c2.629,2.627,6.361,6.034,8.196,7.481c-3.943-4.071-4.885-4.816-9.444-9.22c-0.391-0.864,2.941,2.116,3.421,2.545    l-0.882-0.455c5.034,5.655,8.349,7.631,14.931,14.354c0.989,1.02,0.349,0.434,0.054,0.281    c5.749,5.022,10.534,10.805,16.248,15.561l-1.904-1.51c1.861,1.693,4.628,4.225,7.84,7.085c1.626,1.33,3.811,2.153,6.054,2.128    c2.24-0.011,4.481-0.882,6.108-2.387l-0.078-0.205c-0.419,0.243,0.041-0.097,0.662-0.747c0.64-0.637,1.34-1.66,1.718-2.44    l-0.001,0.01c0.779-2.021,0.707-4.229,0.037-6.022c-0.33-0.902-0.812-1.701-1.365-2.383c-0.281-0.338-0.58-0.646-0.891-0.929    c-0.378-0.345-0.747-0.682-1.105-1.009c0.2,0.239,0.413,0.495,0.639,0.767c0.113,0.133,0.23,0.269,0.349,0.408    c0.092,0.116,0.187,0.235,0.284,0.357c0.372,0.496,0.738,1.059,1.044,1.7c0.196,0.236,0.509,0.84,0.736,1.641    c0.222,0.8,0.324,1.794,0.251,2.713c-0.125,1.853-0.94,3.281-0.438,2.956c-0.892,1.501-2.517,3.212-4.541,4.012    c-2.004,0.854-4.204,0.702-5.382,0.208c1.101,0.399,1.503,0.454,1.389,0.527c-0.108,0.06-0.714,0.054-1.49-0.107    c-0.774-0.16-1.694-0.516-2.43-0.933c-0.736-0.414-1.292-0.86-1.507-0.962c-1.08-1.568-5.88-5.842-5.031-5.653    c-0.694-0.866,1.724,2.162,3.604,3.647c4.451,3.835-7.315-7.857-1.86-2.988c-6.796-6.333-15.347-15.085-22.422-21.553l3.655,3.926    c-2.961-3.059-10.159-10.109-10.532-10.802c2.275,2.198,4.885,4.816,7.813,7.612c0.511-0.234-6.878-6.874-6.966-7.423    l-8.928-7.693l3.619,3.66c-2.519-2.066-9.856-9.95-15.444-15.644c3.746,2.726,8.523,8.497,14.663,14.228    c4.504,4.117-2.17-3.155,2.032,0.803c-0.939-1.177-3.615-3.825-5.057-5.01l-1.517-1.702c4.104,3.176,12.16,11.439,17.99,16.473    c-0.526-0.427-0.995-0.79-1.199-0.888c4.002,4.362,8.257,8.604,12.458,12.558c-2.01-2.303-2.963-3.057-4.25-4.235    c-0.039-0.269,3.86,3.531,5.443,4.86c-3.657-3.929-0.434-0.98-2.757-3.457c2.581,2.359,4.549,4.393,7.511,7.452    c1.386,1.736-1.533-1.05-1.443-0.502c3.238,2.962,4.106,4.93,8.908,9.201c-2.969-3.065-2.446-2.793-0.902-1.514    c0.772,0.64,1.799,1.531,2.773,2.384c0.635,0.513,1.28,0.819,1.69,0.956c-0.01,0.019-0.711-0.423-0.699-0.44    c1.506,0.56,2.663,0.685,3.766,0.96c-1.007,0.175-2.022-0.049-2.657-0.268c-0.637-0.224-0.976-0.374-0.811-0.051    c1.236,0.674,2.762,0.93,4.292,0.483c0,0-0.334,0.149-0.695,0.253c-0.359,0.105-0.738,0.165-0.738,0.165s0.458,0.022,1.128-0.088    c0.671-0.104,1.54-0.392,2.295-0.878c0.761-0.474,1.4-1.146,1.783-1.693c0.384-0.551,0.557-0.964,0.557-0.964    c0.094-0.58,0.122-1.346-0.035-2.037c-0.144-0.694-0.457-1.292-0.781-1.621c0.021-0.696-0.293-1.509-0.839-2.122    c-0.131-0.158-0.284-0.299-0.434-0.436c-0.293-0.27-0.583-0.534-0.864-0.793c-0.57-0.518-1.11-1.008-1.594-1.446l0.959,0.757    c-3.371-3.783-11.501-11.568-12.386-12.025c-2.365-2.746,19.424,16.702,1.163-1.163c-6.868-6.864-4.959-3.595-9.115-7.277    c0,0,0.291,0.151-0.053-0.283c-2.956-3.055-3.517-3.097-6.097-5.457c1.698,1.905,4.305,4.521,5.245,5.264    c-1.189-0.619-6.233-6.283-8.761-8.361c3.428,2.549-5.641-5.977-3.095-3.883c-5.693-6.26-12.431-12.301-15.895-15.115    c-3.503-4.608-7.185-7.039-13.512-13.877c0.995,1.028,2.914,2.781,4.27,4.256c4.102,3.401-6.637-7.004-0.542-1.55    c-1.29-1.18-0.273,0.099,1.048,1.311c2.254,2.176,4.495,4.107,4.098,3.392l-5.054-5.674l1.957,1.788l-7.711-8.569    c-0.292-0.151,0.384,0.7,0.732,1.135c-1.577-1.617-3.192-3.274-4.826-4.951c-2.188-2.194-4.401-4.414-6.614-6.634    c-4.73-4.694-9.459-9.388-13.967-13.861c6.175-0.007,12-0.013,17.301-0.018c0.441-0.35,3.298-0.562,7.675-0.697    c1.748-0.045,3.754-0.097,5.924-0.152c1.833-0.025,3.802-0.053,5.829-0.082c8.106-0.082,17.12-0.097,21.846-0.525    c-2.534,0.4-3.92,1.107-2.352,1.398c-2.107,0.059-6.423,0.623-11.203,0.506c-0.763-0.225-6.667-0.479-2.868-0.734    c-13.211,0.158,1.788,0.612-2.111,1.133c14.638-0.137,23.224-0.955,32.463-1.283l0.234,0.164l6.977-0.313    c-5.701-0.092-5.419-0.885,1.929-0.607l-0.894,0.039c4.191,0.333,12.912-0.059,19.459-0.006l4.439-0.459    c6.558,0.053,6.839,0.904,8.971,1.416c10.278,0.06,16.213-0.64,23.513-1.055c3.301,0.371,18.696,0.459,10.539,0.91    c9.271-0.327,7.4-2.32,23.3-1.216l-4.126,0.358c15.202-0.074,36.882-0.788,43.886-0.41c-5.608,1.289,18.988,1.311,21.691,2.574    c-0.754-0.288,4.958-0.385,5.79-0.539c1.252,0.148,3.336,0.293,5.547,0.031c-5.929-0.254,4.167-1.311-7.166-0.801    c5.735-0.867,13.125-1.543,25.689-1.5l-0.189,0.527l-9.94-0.16c1.004,0.389-4.113,0.359-6.211,0.539    c18.493,0.295-2.42,1.233,16.485,1.164c1.825-0.342,0.643-0.2,5.557-0.336c-2.311,0.018-2.727,0.381,0.997,0.389l3.576-0.422    c6.602,0.879-10.928,0.572-5.296,1.19c-7.3,0.414-19.943,0.636-17.588,1.308c11.922,0.244,10.725-1.26,23.189-0.954l1.327,0.286    c4.385-0.195,5.093-0.658,7.493-0.939c0.217,0.164,1.331,0.285,4.146,0.332c7.403-0.678,12.317-0.811,19.146-1.549    c-18.177,0.555-15.539-0.516-34.3-0.021c2.939-0.219,16.147-0.379,16.959-1.107l-0.176,0.529    c6.101-0.275,12.197-0.547,19.858-0.373l-4.677,0.297c10.154-0.367,16.88,0.801,24.892-0.076    c-2.829-0.047-5.127-0.031-6.873,0.049c5.227-0.235,11.784-0.183,17.464-0.094l11.754-0.871c-0.104,0.262,7.345,0.277,3.751,0.695    c8.463,0.402,12.451-0.385,17.341-0.516c8.665,0.561-7.506,0.25-8.355,0.979c5.969,0.123,12.117,0.129,17.615,0.045    c0.344-0.006,0.685-0.012,1.023-0.018l0.505-0.009l0.323-0.017c0.382-0.029,0.748-0.097,1.094-0.197    c0.693-0.2,1.306-0.532,1.813-0.932c1.021-0.809,1.569-1.86,1.757-2.717c-0.581,1.141-1.145,1.475-1.178,1.352    c0.119-0.009,0.584-0.49,0.909-1.219c0.334-0.722,0.455-1.677,0.39-2.366c0.027-0.025-0.471-0.848-0.483-0.826    c-0.176-1.035-0.44-1.476-0.307-1.509c0.104-0.028,0.565,0.365,0.97,1.312c-0.258-1.123-1.127-2.173-2.183-2.799    c-0.523-0.322-1.084-0.552-1.649-0.715c-0.283-0.083-0.567-0.151-0.857-0.212l-0.439-0.078c-0.045-0.016-0.215-0.027-0.35-0.04    l-0.414-0.043c0.351-0.017,0.706-0.035,1.067-0.053c0.255-0.008,0.51,0.02,0.767,0.054c0.511,0.079,1.02,0.246,1.495,0.491    c0.955,0.49,1.748,1.314,2.221,2.216c0.481,0.903,0.651,1.862,0.638,2.71c-0.009,0.849-0.191,1.536-0.333,2.049    c0.368-0.994,0.432-1.945,0.35-2.78c-0.088-0.828-0.319-1.533-0.624-2.151c-0.62-1.231-1.505-2.13-2.635-2.743    c-0.57-0.303-1.216-0.519-1.962-0.615l-0.285-0.027c-0.152-0.006-0.308-0.013-0.464-0.02c-0.317-0.011-0.643-0.023-0.976-0.035    c-0.666-0.018-1.365-0.037-2.105-0.057c-2.964-0.063-6.591-0.068-11.42,0.041c-0.237-0.164,3.033-0.483-0.688-0.487    c-8.621,0.126-2.252,0.706-4.944,1.087c6.636-0.213,9.724-0.004,13.575,0.429l-1.771,0.278c-0.269-0.145-4.437-0.152-5.664-0.292    l-1.072,0.567c0.495-0.627-6.173-1.105-11.413-0.871c5.296,0.455,3.865,0.431,5.306,1.146c-7.369,0.677-8.314-0.665-16.574,0.052    c0.619-0.202,7.83-0.352,1.6-0.506c-5.158-0.027-4.471,0.461-7.93,0.617c3.896-0.522,2.896-0.911,7.118-1.531    c9.164-0.066,3.696,0.007,12.653-0.221l-7.582-0.442c7.765-0.085,5.646-0.598,6.286-0.798c-13.259-0.532-9.992,0.794-18.523,0.657    c-4.113,0.358,7.991,0.076,1.558,0.451c-7.978-0.076-1.819,0.341-10.773,0.568l1.499-0.24c-2.736-0.311-5.443,0.072-8.609,0.125    c-3.483,0.158,3.943,1.816-10.378,1.852c0.701-0.146,0.959-0.238,0.959-0.299l13.971-4.391    c-14.511,0.011-31.232-0.111-48.036-0.405c-3.958-0.858,11.993-0.708,10.965-1.095l7.665,0.176    c-0.43,0.364-16.059,0.112-9.137,0.755c13.534-0.261,19.676,0.157,32.516-0.593c-3.989-0.86-16.911,0.153-25.264-0.512    c3.508,0.056,6.469-0.039,9.343-0.162c-7.843-0.113-16.236-0.233-25.16-0.361l-2.005,0.208c6.015,0.097,10.175,0.17,10.712,0.201    c-7.975-0.075-14.7,0.401-15.229,1.03l1.416,0.022l-2.881,0.196C341.679,246.957,339.809,246.916,337.948,246.876z M78.12,221.764    c0.3-0.386,0.521-0.706,0.658-0.968C78.636,221.068,78.909,220.88,78.12,221.764z M447.294,267.234    c2.671,0.024,5.348,0.049,8.021,0.073c3.014-0.035,5.995-1.359,8.056-3.562c2.087-2.18,3.233-5.231,3.115-8.227    c-0.081-3.004-1.419-5.929-3.57-7.954c1.852,1.937,2.856,4.4,3.064,6.681c0.218,2.292-0.315,4.381-1.136,5.962    c-0.831,1.589-1.908,2.689-2.836,3.384c-0.934,0.695-1.702,1.026-2.119,1.147c-0.421,0.119-0.49,0.054-0.166-0.204    c0.315-0.267,1.039-0.737,1.977-1.715c0.91-0.975,2.072-2.534,2.553-4.918c0.228-1.182,0.264-2.564-0.08-4.025    c-0.333-1.457-1.077-2.994-2.316-4.32c0,0-0.338-0.334-0.713-0.624c-0.367-0.297-0.768-0.546-0.768-0.546    c1.483,1.109,3.21,3.208,3.671,6.011c0.243,1.381,0.165,2.896-0.267,4.33c-0.438,1.435-1.239,2.783-2.302,3.855    c-0.775,0.929-2.275,2.282-4.484,2.962c-1.09,0.36-2.345,0.426-3.597,0.548c-1.253,0.121-2.52,0.243-3.744,0.36    c-2.448,0.249-4.726,0.479-6.381,0.647c-1.654,0.18-2.685,0.308-2.638,0.343c1.87,0.348,4.597-0.031,7.998,0.074L447.294,267.234z     M439.733,265.15c-6.027-0.139-4.655,0.137-5.591,0.385c2.121-0.031,4.239-0.063,6.334-0.094    C439.674,265.379,439.279,265.291,439.733,265.15z M434.502,265.783c0.678,0.006,1.256,0.018,1.559,0.051L434.502,265.783z     M389.668,245.901c0.268-0.006,0.364-0.009,0.619-0.015c-1.424-0.019-2.851-0.038-4.34-0.058    C386.526,245.868,387.625,245.899,389.668,245.901z M401.903,246.509l1.431-0.454c-1.327-0.017-2.683-0.035-4.068-0.052    C399.723,246.208,400.2,246.387,401.903,246.509z M441.226,248.003c2.479-0.545,10.784-0.57,11.293-1.199    c0.529-0.162-1.218-0.223-3.178-0.275c-2.187-0.017-4.521-0.034-6.997-0.053c-0.086,0.092-0.578,0.177-1.399,0.259    c2.444,0.079,4.078,0.235,3.088,0.622c-6.286-0.843-5.633,0.6-12.428,0.384C429.443,248.184,439.166,248.18,441.226,248.003z     M153.894,339.268c0.097,0.175,0.466,0.744,1.001,1.527l-3.604-3.165c-5.94-6.134-10.137-11.609-16.121-16.494    c-2.405-2.682-3.475-4.335-4.536-5.876c1.228,1.263,2.369,2.45,3.302,3.458C149.977,333.148,141.031,327.51,153.894,339.268z     M86.209,270.016c0.644,0.589,1.035,0.834,1.035,0.834c-1.696-1.515-3.356-2.997-4.85-4.331c3.308-0.215,6.847-0.393,10.402-0.537    c1.827-0.065,3.604-0.13,5.326-0.192c1.764-0.051,3.473-0.1,5.125-0.146c6.516-0.167,12.128-0.222,16.678-0.202    c-1.994-0.457-11.22-0.813-15.601-1.002l3.882-0.521l2.424,0.41l6.74-0.474c-1.884-0.351-7.328-0.278-10.966-0.548    c-0.079,0.025-0.866,0.082-2.054,0.158c-0.594,0.037-1.288,0.08-2.043,0.127c-0.845,0.046-1.76,0.096-2.699,0.146    c-4.28,0.205-8.656,0.438-10.406,0.598l11.216,0.361c-2.863-0.143-16.753-0.031-22.187,0.098c0.149,0.144,0.253,0.244,0.354,0.341    c0.095,0.045,0.069-0.034-0.063-0.22c1.229,0.121,3.727,0.24,5.889,0.268c2.167,0.028,4.069-0.036,4.277-0.281    c0.809,0.193-1.488,0.291-2.975,0.393c-1.514,0.102-2.176,0.207,1.376,0.414c-1.799,0.108-3.91,0.165-6.204,0.186    c2.398,2.357,4.77,4.788,6.948,7.061c2.198,2.326,4.176,4.42,5.563,5.888c0,0,0.033,0.264,0.066,0.526    c0.046,0.276,0.092,0.553,0.092,0.553c0.286,0.304,0.549,0.582,0.791,0.838c0.22,0.224,0.42,0.428,0.606,0.615    c0.375,0.37,0.696,0.666,0.985,0.915c0.577,0.498,1.021,0.809,1.487,1.146c0.931,0.675,1.95,1.459,4.296,4.072    c-6.188-6.008,0.525,1.537-4.36-3.279c1.375,1.723-0.456,0.519,4.439,5.345c4.656,3.436,4.741,5.506,9.104,8.792    c2.365,2.746-3.117-2.383,1.829,2.727c6.088,5.447,5.985,4.885,6.787,4.798c-5.268-5.518-6.637-5.482-10.939-10.001l9.533,8.013    c-1.509-1.725-2.694-2.933-3.729-3.906c1.807,1.719,3.417,3.104,4.854,4.23c0.812,0.648,1.56,1.246,2.251,1.799    c-4.968-4.977-9.373-9.402-9.964-10.372l0.901,0.47c-1.563-1.958-4.587-4.672-6.067-5.837c-4.476-4.429-9.223-8.575-9.916-9.827    l1.887,1.493c-2.622-2.56-4.078-3.981-5.704-5.568C91.072,274.843,89.358,273.141,86.209,270.016z M329.819,267.437    c-4.69-1.116-9.862-2.104-31.752-1.908l1.723-0.076c-11.031-0.701-21.509,0.926-34.93,0.148c6.513-0.422,6.162-0.383,13.353-1.346    l-6.987,0.315c1.936-0.608-5.034-0.294-10.161-0.322l4.525-0.724c3.077,0.209,11.055,0.283,10.821,0.119    c-1.747,0.08,10.532,0.912,17.203,0.702c-0.688-0.489-14.772-0.292-8.483-1.092c-5.543,0.335-6.23-0.153-12.024,0.019    c5.557-0.336,1.376-0.668,5.512-1.024l-9.5,0.167c-0.248-0.164,13.837-0.363,6.052-0.965c-3.807,0.256-13.972-0.066-14.153,0.461    l-0.234-0.162c-7.121-0.113-3.132,0.747-11.876,0.446c-0.103,0.265,1.564,0.448,4.697,0.394c2.647-0.117,3.053-0.48,8.507-0.554    c2.444,0.413-6.579-0.052-2.793,0.646c1.881,0.347,14.397-0.3,10.409,0.483l-7.107-0.113c-0.183,0.529-5.33,0.498-5.186,0.924    c-4.347,0.195-8.449-0.4-12.888,0.06c-1.843,0.341,1.375,0.976-5.97,0.7c-5.739-0.781-22.65-0.629-28.984-0.518l-5.543,0.336    c0.471,0.324,10.591-0.043,7.032,0.377l-8.645,0.127l0.667-0.203c-2.864-0.045-5.794,0.174-8.408,0.289    c2.693-0.38,8.923-0.227,7.686-0.777c-4.058-0.107-4.677-0.313-8.411-0.207c0.815-0.039,1.516-0.092,1.413-0.17    c-8.215-0.238-7.933,0.615-9.993,0.795c-8.259,0.715,8.325,0.664,7.269,1.23l-24.115,0.303c2.06-0.18,4.133-0.357,3.356-0.582    c-5.915-0.254-0.134-0.428-8.438-0.4c0.591,0.752-10.457,0.469-16.323,0.902c-2.741-0.308-3.305-0.369,2.689-0.379    c-0.688-0.488-8.734-0.301-11.595-0.344c-1.657,0.121-4.484,0.191-6.275,0.301c2.4,0.242,1.375,0.549-3.82,0.756l-0.302,0.104    c8.517,0.133,21.756,0.666,27.096,0.166l-1.509,0.242c9.858,0.422,21.453-0.877,25.999,0.045c-0.419,0.365,1.98,0.084,1.809,0.611    l7.259-0.412l-1.509,0.24l12.348-0.119l-0.327,0.098c5.869-0.491,10.466-0.877,14.14-1.186c0.014-0.229-0.368-0.301,1.588-0.47    c1.964-0.114,3.453-0.132,4.78-0.101c0.01-0.002,0.01-0.002,0.01-0.004v0.004c3.029,0.066,5.048,0.396,8.779,0.531l-11.481,0.057    c-0.935,0.391,0.042,0.797,5.667,1.07c-2.301,0.014-3.263,0.318-0.416,0.363c0.313-0.102,7.523-0.249,4.776-0.561    c10.907-0.143,28.564,0.883,45.125,0.141c-11.897,0.447,9.535,0.523-3.673,0.684c9.219,0.625,7.933-0.615,17.33-0.518    c0.802,0.225-5.116-0.029-7.275,0.414c15.625,0.25,26.363-1.01,41.479-0.82l0.646,0.488    C323.337,267.578,326.514,267.51,329.819,267.437z M359.72,266.83c2.909-0.055,5.859-0.11,8.858-0.168    c-0.293-0.005-0.564-0.009-0.87-0.014l8.741-0.393c-5.371-0.19-8.91-0.727-1.393-0.976c-0.633,0.202,1.564,0.448-1.049,0.566    c5.037,0.292,16.089,0.575,13.207-0.161c-9.68,0.696-2.256-0.938-9.861-0.421c4.081-0.479,8.125-0.264,11.979-0.478    c-4.013,0.4,0.936,0.909,6.963,1.101c2.624-0.118,9.725-0.005,14.085-0.2c-1.555-0.449,2.242-0.707-4.862-0.82    c2.606-0.119,6.64-0.213,11.158,0.02c-1.791,0.076-4.924,0.133-4.707,0.295c2.916,0.414,6.33,0.396,8.215,0.573    c1.502-0.024,3.019-0.049,4.494-0.072c-0.44-0.04-0.822-0.091-1.094-0.155l4.993-0.396c-6.65,0.211-3.074-0.209-2.988-0.473    c-0.179,0.527,4.281,0.068,6.558,0.051l-4.945-0.557c2.39-0.279,8.438,0.402,7.19-0.148c-10.491-0.221-14.524-0.127-24.012,0.039    l3.852,0.434c-10.705,0.306-6.603-0.742-18.613-0.722c-4.993,0.396-18.063,0.027-18.311,0.819    c1.506-0.242-7.479-0.705-11.595-0.346c-4.55,0.723-18.308,0.82-14.14,1.15c3.717,0.01,8.72-0.389,11.708,0.082l-7.211,0.151    l4.732,0.394C358.359,265.865,358.596,266.25,359.72,266.83z M420.281,240.73c-0.079-0.003-0.182-0.007-0.278-0.01    c0.106,0.001,0.21,0.001,0.31,0.002L420.281,240.73z" fill="#202020"/><path d="M112.161,327.11c-1.593-1.339-5.198-4.985-4.762-4.001C107.613,322.719,113.923,329.54,112.161,327.11z" fill="#202020"/><path d="M108.12,322.479c-0.327-0.183-0.265,0.109-1.902-1.506l4.555,4.401L108.12,322.479z" fill="#202020"/><path d="M105.635,315.876c-2.535-2.085-4.125-3.422-7.73-7.068c-0.626-2.097,6.141,5.73,8.47,6.688    c-6.576-6.715-9.258-8.112-14.786-13.517C93.991,304.995,104.878,316.235,105.635,315.876z" fill="#202020"/><polygon fill="#202020" points="109.516,317.899 105.655,314.369 105.976,314.776 109.84,318.309   "/><path d="M159.519,336.367c-0.104-0.563-2.632-2.64-3.923-3.819C156.586,333.566,157.931,335.032,159.519,336.367z" fill="#202020"/><path d="M164.66,137.384c0,0-0.241-0.063-0.694-0.18c-0.456-0.101-1.126-0.248-1.992-0.334    c-1.719-0.182-4.269-0.156-7.093,0.861c-1.403,0.507-2.86,1.261-4.218,2.297c-0.341,0.257-0.672,0.533-0.998,0.824    c-0.165,0.143-0.319,0.298-0.479,0.449l-0.374,0.371c-0.395,0.4-0.797,0.81-1.207,1.226c-1.638,1.664-3.386,3.439-5.133,5.215    c-6.99,7.101-13.98,14.202-13.98,14.202c4.027-4.082,7.9-8.006,12.33-12.494c2.212-2.247,4.563-4.634,7.141-7.253    c0.322-0.328,0.647-0.659,0.977-0.994c0.464-0.463,1.06-1.021,1.658-1.469c1.209-0.936,2.595-1.723,4.102-2.288    C157.706,136.674,161.22,136.422,164.66,137.384z" fill="#202020"/><path d="M108.253,269.543c-2.676,0.076-4.98,0.168-7.102,0.267l-0.311,0.018l-0.208,0.019l-0.404,0.038    c-0.26,0.025-0.516,0.05-0.769,0.075c-0.478,0.05-0.945,0.1-1.413,0.149c-1.809,0.196-3.336,0.372-5.587,0.442    c1.964,0.164,3.169,0.182,4.246,0.127c1.062-0.055,1.971-0.182,2.972-0.309l0.763-0.094l0.395-0.045l0.101-0.011l0.206-0.01    l0.416-0.021c1.109-0.054,2.235-0.099,3.409-0.125c2.349-0.053,4.894-0.031,7.905,0.136L108.253,269.543z" fill="#202020"/><path d="M104.478,272.134c-1.774-0.612,8.259-0.717,6.705-1.165c-7.214,0.148-3.359,0.582-9.907,0.529    L104.478,272.134z" fill="#202020"/><polygon fill="#202020" points="96.124,286.612 93.603,284.542 95.533,286.307   "/><polygon fill="#202020" points="153.264,271.59 152.081,271.728 157.449,271.922   "/><path d="M150.899,271.869l1.183-0.141L150.899,271.869z" fill="#202020"/><polygon fill="#202020" points="92.246,284.591 95.565,288.094 97.451,289.584   "/><path d="M102.72,263.99l-4.875,0.195c0.258-0.009,0.909,0,1.686,0.012c0.716,0.01,1.551,0.021,2.27,0.03    C103.078,264.234,103.943,264.195,102.72,263.99z" fill="#202020"/><polygon fill="#202020" points="186.044,271.85 191.295,271.615 190.759,271.554 185.525,271.789   "/><path d="M136.501,262.302c-2.981-0.47,8.61-0.127,2.476-0.543C133.52,261.833,135.734,262.078,136.501,262.302z" fill="#202020"/><path d="M199.857,265.492c0.708,0,1.455-0.016,2.173-0.068C201.174,265.451,200.456,265.473,199.857,265.492z" fill="#202020"/><path d="M199.857,265.492c-2.287,0-4.573-0.18-6.142-0.043C196.566,265.662,197.605,265.582,199.857,265.492z" fill="#202020"/><path d="M226.056,265.383l-2.074-0.033c2.118-0.232,1.114-0.197-0.777-0.012c-2.197,0.017-2.074,0.166-2.335,0.268    c-0.44,0.059-0.877,0.118-1.352,0.182c0.677-0.063,1.286-0.121,1.802-0.17C224.725,265.621,226.802,265.598,226.056,265.383z" fill="#202020"/><path d="M323.378,273.308c-7.658-0.175-9.639-0.26-9.223-0.625c-7.269-0.115-6.142,0.513-10.525,0.658    C311.856,273.271,313.536,273.439,323.378,273.308z" fill="#202020"/><path d="M303.63,273.342c-0.922,0.01-1.802,0.019-2.871,0.029C301.955,273.383,302.843,273.367,303.63,273.342z" fill="#202020"/><polygon fill="#202020" points="195.435,261.391 200.194,260.833 198.448,260.91   "/><path d="M334.742,273.492c-1.42-0.022-3.696-0.006-4.814-0.131C329.519,273.726,336.159,273.515,334.742,273.492z" fill="#202020"/><path d="M305.208,266.334c-0.777-0.223-5.677-0.09-7.671-0.176C300.398,266.205,302.729,266.879,305.208,266.334z" fill="#202020"/><path d="M356.711,271.986c-1.42-0.023-3.604-0.269-2.657-0.57C351.99,271.594,349.198,272.238,356.711,271.986z" fill="#202020"/><polygon fill="#202020" points="319.203,266.4 318.11,266.275 312.869,266.51   "/><path d="M300.511,261.008c-5.894,0.436,9.35,1.051-0.801,1.42c13.094,0.457-1.004-0.617,8.655-0.546    C302.708,261.734,299.937,261.183,300.511,261.008z" fill="#202020"/><path d="M308.365,261.882c0.821,0.022,1.712,0.036,2.679,0.038C309.974,261.904,309.112,261.892,308.365,261.882z" fill="#202020"/><path d="M391.314,264.638c-0.855,0.047-1.44,0.096-1.98,0.148C390.007,264.75,390.651,264.705,391.314,264.638z" fill="#202020"/><path d="M339.212,261.521l-8.833,0.654c5.9-0.436,20.745-0.408,19.819-1.06c-4.807-0.132-10.591,0.04-12.967,0.321    L339.212,261.521z" fill="#202020"/><path d="M440.61,273.332l-3.816,0.258l4.766,0.076C440.194,273.568,442.662,273.09,440.61,273.332z" fill="#202020"/><path d="M442.48,273.679l-0.921-0.014C441.762,273.682,442.054,273.689,442.48,273.679z" fill="#202020"/><path d="M374.606,264.955c-2.854-0.047-5.137-0.029-7.74,0.088C367.946,265.166,375.057,265.28,374.606,264.955z" fill="#202020"/><path d="M470.54,261.183c-0.001-0.001-0.184,0.622-0.571,1.513c-0.382,0.892-0.997,2.038-1.758,3.085    c-0.755,1.051-1.654,1.989-2.381,2.633c-0.725,0.647-1.26,1.018-1.26,1.018s0.588-0.398,1.378-1.107    c0.794-0.701,1.763-1.741,2.563-2.909c0.814-1.157,1.436-2.442,1.815-3.434c0.383-0.993,0.548-1.685,0.548-1.685    s-0.08,0.223-0.16,0.446C470.634,260.966,470.54,261.183,470.54,261.183z" fill="#202020"/><polygon fill="#202020" points="444.528,238.507 443.441,238.384 438.217,238.618 439.322,238.74   "/><path d="M456.573,260.403c-0.472,0.15-0.925,0.251-1.352,0.32c-0.12,0.029-0.64,0.06-1.01,0.092    c-0.384,0.04-0.733,0.076-1.041,0.108c-1.228,0.152-1.782,0.33-1.224,0.392c0,0,0.518-0.002,1.294-0.004    c0.388-0.001,0.841-0.003,1.326-0.004c0.121-0.001,0.244-0.001,0.369-0.002l0.231-0.007c0.138,0.002,0.274-0.02,0.412-0.029    c0.547-0.061,1.069-0.22,1.446-0.379c0.377-0.157,0.608-0.307,0.608-0.307c-0.605,0.05-0.852,0.138-1.281,0.32    c-0.216,0.084-0.476,0.188-0.849,0.246c-0.095,0.009-0.193,0.03-0.303,0.033c-0.104,0.005-0.198,0.015-0.475,0.013    c-0.469-0.006-0.997-0.013-1.598-0.021c0,0,0.332-0.031,0.829-0.078c0.249-0.023,0.539-0.051,0.85-0.08    c0.188-0.013,0.259-0.033,0.336-0.051c0.082-0.014,0.164-0.036,0.244-0.06C456.041,260.74,456.573,260.403,456.573,260.403z" fill="#202020"/><path d="M226.342,239.464c1.85-0.342,10.907-0.144,11.382,0.181c-1.217,0.141-6.127,0.276-3.043,0.483l7.166-0.84    c9.532,0.523-7.245,1.104-11.953,1.4c9.71,0.108,12.588-0.444,22.918-0.44c-3.046-0.075-4.972-0.285-6.582-0.465    c-0.351-0.591,9.274-0.329,16.154-0.376c-4.381-0.257-1.846-0.473,1.345-0.705c0.574-0.019,0.956-0.052,1.228-0.092    c0.371-0.028,0.723-0.055,1.083-0.083l-0.825,0.001c0.059-0.066-0.123-0.146-0.719-0.256c-5.773,0.172-10.188-0.322-13.905-0.33    c3.672,0.961-12.657,0.222-17.331,0.518l-5.395,0.095l-2.019,0.002c-0.406-0.105,0.168-0.238,3.246-0.428    c-2.568,0.189-11.134,0.123-10.343,0.432l-19.548,0.014c-0.608-0.039-1.217-0.088-1.667-0.157    c-0.678,0.061-0.791,0.11-0.702,0.159l-85.17,0.062c4.202,0.076,7.836,0.295,12.169,0.401c-6.502,0.638,7.104,0.115,5.195,0.719    c-2.923,0.219-7.2,0.15-9.748,0.003c-0.949,0.305,2.682,0.575,2.262,0.939c10.742,0.383,12.386-1.075,22.887-0.854    c-0.416,0.365-3.662,0.685,3.212,0.635l-1.747,0.079c11.007-0.409,8.576,0.826,15.505-0.176l-0.182,0.527    c4.993-0.397,14.707-0.4,20.181-0.473l-0.327,0.102c15.357-0.604,8.621-0.128,25.865-0.381l-7.937,0.615    c5.949,0.254,7.29-0.415,11.561-0.346c-0.306,0.102,0.685,0.487-3.349,0.583l20.924-0.938    C233.127,239.678,227.119,239.689,226.342,239.464z" fill="#202020"/><path d="M252.812,240.248c1.107,0.028,2.366,0.04,3.851,0.02C255.23,240.26,253.995,240.254,252.812,240.248z" fill="#202020"/><path d="M105.679,238.644l5.983-0.005C109.808,238.607,107.876,238.597,105.679,238.644z" fill="#202020"/><path d="M282.804,239.097c-3.628-0.272,2.716-0.381,3.349-0.584l-12.994,0.01c0.059,0.203-1.228,0.431-0.966,0.616    L282.804,239.097z" fill="#202020"/><path d="M269.397,238.14c-0.44,0.142-1.815,0.268-3.356,0.388l7.118-0.005    C273.114,238.37,272.316,238.232,269.397,238.14z" fill="#202020"/><polygon fill="#202020" points="270.772,248.981 268.472,248.999 264.991,249.156   "/><path d="M234.794,248.087c2.748,0.308,7.96,0.074,9.704-0.004C238.49,248.093,241.094,247.976,234.794,248.087z" fill="#202020"/><polygon fill="#202020" points="242.218,251.387 236.427,251.562 236.968,251.622   "/><path d="M98.844,235.763c0.646-0.662,1.273-1.305,1.926-1.974c-0.456,0.46-0.833,0.841-1.156,1.167    C99.316,235.269,99.067,235.53,98.844,235.763z" fill="#202020"/><path d="M111.143,240.216c-13.813-0.592,9.05-0.492,4.711-1.25l-7.517,0.251l0.64-0.203l-8.216,0.066    c0.031,0.043,0.064,0.082,0.1,0.117c0.071,0.035-0.024,0.065,0.251,0.094c0.39,0.059,0.729,0.11,1,0.15    c0.537,0.095,0.788,0.191,0.583,0.375c-0.679-0.011-1.287-0.02-1.832-0.028c-0.146-0.012-0.274-0.023-0.389-0.032    c-0.224-0.022-0.379-0.047-0.489-0.075c-0.219-0.054-0.255-0.119-0.26-0.192c0.02-0.148,0.031-0.336-0.304-0.567    c-0.432,0.014-0.863,0.028-1.26,0.028l0.416-0.47c-0.003,0.003,0.111,0.043,0.114,0.041c0.09-0.101,0.048-0.124-0.025-0.136    c0,0,0.278-0.298,0.695-0.745c0.109-0.117,0.227-0.243,0.353-0.377c0.063-0.068,0.129-0.138,0.196-0.21    c0.205-0.209,0.414-0.423,0.627-0.641c1.9-1.919,3.928-3.967,5.955-6.014c8.109-8.189,16.217-16.378,16.217-16.378    c5.725-6.135-3.745,2.815,0.249-1.939c-6.872,6.875-17.361,16.815-17.43,17.914c0.16-0.302,0.472-0.899-0.982,0.434l-3.551,4.399    l3.926-3.655c-0.894,1.105-2.377,2.734-4.139,4.59c-0.221,0.231-0.445,0.467-0.673,0.706l-0.172,0.18l-0.077,0.081l-0.015,0.018    l-0.059,0.072c-0.079,0.093-0.16,0.188-0.242,0.283c-0.166,0.186-0.337,0.367-0.518,0.546c-0.701,0.694-1.64,1.455-2.362,1.915    c0.546-0.69,0.357-0.828,0.441-1.133c0.043-0.154,0.163-0.358,0.499-0.716c0.33-0.353,0.892-0.875,1.687-1.531    c-0.227-0.034-1.176,0.456-0.446-0.418c-1.627,1.747-3.168,3.285-4.74,4.867c1.688-0.005,3.405-0.015,5.116-0.07    c0.42-0.017,0.843-0.034,1.269-0.051l0.312-0.016l0.668-0.017c0.632-0.013,1.266-0.026,1.903-0.039    C105.917,240.365,108.503,240.291,111.143,240.216z" fill="#202020"/><path d="M168.227,139.562l0.211,0.053C168.016,139.394,167.869,139.342,168.227,139.562z" fill="#202020"/><path d="M173.996,145.981c0,0,0.416,0.682,0.866,1.795c0.456,1.109,0.899,2.668,1.055,4.284    c0.167,1.613,0.042,3.258-0.189,4.473c-0.228,1.217-0.512,2.004-0.512,2.004c0,0,0.127-0.299,0.294-0.84    c0.176-0.538,0.389-1.32,0.547-2.274c0.333-1.903,0.33-4.533-0.4-7.02c-0.689-2.498-2.091-4.753-3.377-6.18    c-0.64-0.72-1.225-1.269-1.657-1.628c-0.424-0.368-0.688-0.554-0.688-0.554c0,0-0.372-0.13-0.748-0.234    c-0.372-0.112-0.749-0.193-0.749-0.193c0.786,0.399,2.667,1.609,4.145,3.437c1.526,1.792,2.512,4.139,2.755,5.49    c0,0-0.272-0.68-0.614-1.318C174.392,146.579,173.995,145.981,173.996,145.981z" fill="#202020"/><path d="M168.062,168.252c4.552-4.853,3.879-5.015,1.124-2.64c0.516-0.564,0.945-1.016,1.306-1.38    c0.427-0.42,0.763-0.75,1.036-1.018c0.697-0.726,1.066-1.11,1.375-1.431c0.303-0.327,0.539-0.595,0.866-1.161    c0.311-0.569,0.75-1.442,1.119-3.036c-0.227,0.019-1.14,2.888-3.321,5.29c-0.796,0.839-1.63,1.717-2.347,2.472    c-0.648,0.696-1.19,1.278-1.485,1.595L168.062,168.252z" fill="#202020"/><polygon fill="#202020" points="133.146,202.729 134.296,201.234 130.992,204.446   "/><path d="M134.296,201.234l3.28-3.187c-0.352,0.095-0.699,0.191-1.314,0.631L134.296,201.234z" fill="#202020"/><path d="M146.182,189.681c1.4-1.338,2.938-2.829,4.792-4.661L146.182,189.681z" fill="#202020"/><path d="M142.378,193.273l0.164-0.055l3.641-3.537C144.822,190.966,143.601,192.118,142.378,193.273z" fill="#202020"/><path d="M137.576,198.047c0.817-0.233,1.739-0.542,6.334-5.298l-1.369,0.47L137.576,198.047z" fill="#202020"/><polygon fill="#202020" points="200.102,250.765 194.872,250.999 195.426,251.063 200.653,250.828   "/><path d="M169.926,250.387c-1.293,0.073-2.273,0.149-3.164,0.227C168.123,250.569,169.207,250.5,169.926,250.387z" fill="#202020"/><path d="M147.492,253.21c-6.151-0.416,8.486-0.55-2.906-0.734c-1.004-0.387,4.336-0.886,9.7-0.693    c-0.426,0.364-5.227,0.233-1.929,0.605c3.563-0.421,4.917-0.134,3.676-0.683c5.994-0.342,6.661-0.732,10.729-1.09    c-7.245,0.242-22.458-0.322-31.652,0.383c-5.068,0.66-1.994,1.561-2.015,2.514C133.858,253.735,146.997,253.841,147.492,253.21z" fill="#202020"/><path d="M157.172,254.161c2.847,0.047,3.717,0.009,5.464-0.07C162.164,253.765,159.472,254.147,157.172,254.161z" fill="#202020"/><path d="M90.638,246.985c-0.378,0.068-2.074,0.144-3.605,0.232c-1.524,0.088-2.892,0.189-2.438,0.306l9.384-0.171    C91.856,247.329,91.268,247.163,90.638,246.985z" fill="#202020"/><path d="M97.992,247.279l-4.013,0.073C94.967,247.364,96.224,247.345,97.992,247.279z" fill="#202020"/><path d="M90.32,246.901c0.106,0.028,0.201,0.053,0.318,0.084C90.793,246.956,90.801,246.927,90.32,246.901z" fill="#202020"/><path d="M159.75,176.449c0.107,0.263,2.457-2.309,3.637-3.599C162.367,173.839,160.897,175.189,159.75,176.449z" fill="#202020"/><path d="M91.046,200.203l-2.319,2.025C89.582,201.549,90.019,201.199,91.046,200.203z" fill="#202020"/><path d="M62.573,238.78c-0.027,0.1-0.158,0.291-0.346,0.536C62.421,239.076,62.541,238.894,62.573,238.78z" fill="#202020"/><path d="M62.227,239.316c-1.333,1.64-6.157,5.986-7.573,7.87l0.138-0.281l-2.931,3.209    C54.718,247.216,60.784,241.207,62.227,239.316z" fill="#202020"/></g></g></svg>