<?xml version="1.0" ?><!DOCTYPE svg  PUBLIC '-//W3C//DTD SVG 1.1//EN'  'http://www.w3.org/Graphics/SVG/1.1/DTD/svg11.dtd'><svg enable-background="new 0 0 512 512" height="512px" id="Calque_1" version="1.1" viewBox="0 0 512 512" width="512px" xml:space="preserve" xmlns="http://www.w3.org/2000/svg" xmlns:xlink="http://www.w3.org/1999/xlink"><g><path d="M299.229,288.621c-2.873-2.794-5.125-5.486-3.961-4.519c-6.039-5.506-5.859-5.933-7.123-6.165   c-3.958-3.452-7.561-7.755-3.136-3.749L274.01,263.82l6.308,6.468c-2.169-1.311-10.079-10.336-12.604-11.859l11.605,11.522   l-0.72-0.436c2.786,2.479,7.837,7.658,9.56,9.501c-0.352-0.21-0.287,0.083-2.34-1.943c13.93,13.995,4.511,3.011,16.239,14.454   C301.323,290.811,300.429,289.906,299.229,288.621z" fill="#202020"/><path d="M310.04,301.532l5.408,4.332l8.032,8.31c0.278-0.093,6.38,5.709,2.514,1.516   c-0.817-0.759-2.43-2.261-3.671-3.535c1.313,0.511,11.065,10.665,9.07,7.858c-6.567-6.356-7.472-7.437-11.774-11.088   c-5.887-5.961-10.108-10.367-12.728-13.28c-1.82-1.697-2.313-1.698-4.597-3.884c0.5,0.489,0.959,0.939,1.533,1.502l-0.362,0.845   c1.99,1.736,3.691,3.558,5.771,5.612l-10.269-8.859c2.519,3.648,12.248,12.715,15.769,16.704   C310.588,302.399,318.698,311.02,310.04,301.532z" fill="#202020"/><path d="M302.295,291.76c-0.063-0.062-0.165-0.163-0.236-0.233C302.13,291.597,302.233,291.699,302.295,291.76z" fill="#202020"/><path d="M117.715,135.27c-2.044-2.023-2.786-2.48-3.151-2.702l22.908,22.885c-0.559-0.875-6.958-7.666-2.456-3.354   c-1.79-2.141-7.926-7.977-9.008-8.631l1.901,1.418c-5.585-4.965-8.58-9.177-4.958-5.92l-0.448-0.442l-15.803-13.419   C111.995,130.538,111.241,128.826,117.715,135.27z" fill="#202020"/><path d="M304.702,223.641c2.911-3.022,3.219-3.444,2.823-3.166C306.507,221.583,305.547,222.644,304.702,223.641z" fill="#202020"/><path d="M103.005,121.969l-4.949-4.205C99.989,119.497,101.733,120.973,103.005,121.969z" fill="#202020"/><path d="M140.383,148.006c0.029-0.01,0.096,0.021,0.002-0.125l-2.246-1.865c0.031,0.031,0.04,0.041,0.052,0.053   C138.995,146.779,139.717,147.417,140.383,148.006z" fill="#202020"/><path d="M187.078,165.312c0.5,0.483,0.931,0.899,1.528,1.476C188.05,166.25,187.547,165.764,187.078,165.312z" fill="#202020"/><path d="M204.54,207.901l-10.538-9.821c1.526,1.188-3.435-3.672-1.093-1.726c-0.802-0.749-4.507-4.319-3.603-3.239   l2.088,2.065c-5.862-4.874-2.802-1.432-12.079-9.956c5.232,5.819,7.924,7.973,11.075,10.674c1.018,0.967,1.87,1.777,2.732,2.596   l9.156,7.773L204.54,207.901z" fill="#202020"/><path d="M395.466,105.807l-0.073,0.149C395.482,105.842,395.488,105.81,395.466,105.807z" fill="#202020"/><path d="M395.107,106.56l0.286-0.604C394.925,106.583,392.906,108.754,395.107,106.56z" fill="#202020"/><path d="M105.007,123.33c-0.231-0.047-0.931-0.522-2.002-1.361l3.695,3.135   C106.226,124.608,105.601,123.953,105.007,123.33z" fill="#202020"/><path d="M113.856,130.019l8.646,8.505l3.418,2.905C122.541,138.244,118.636,134.472,113.856,130.019z" fill="#202020"/><path d="M173.823,151.476c17.839,17.687-4.946-3.781,3.076,4.521c5,4.864,7.017,6.327,10.179,9.315   c-14.325-13.853,2.82,1-11.536-13.063c2.521,1.521,10.792,9.703,15.478,14.659c4.976,5.939-5.121-4.416-6.83-5.179   c5.78,5.623,4.864,4.531,7.552,6.682c8.841,9.064,19.115,17.932,23.793,23.946c6.587,6.374,6.391,5.717,10.372,9.19   c1.257,0.226-9.368-9.91-11.363-12.717c0.454,0.541,1.337,1.599,0.984,1.39l-5.495-5.711c5.139,5.498-1.254-0.224-4.137-3.026   c-2.078-2.057-6.211-6.144-5.503-5.721l3.242,3.02c-3.867-4.192-9.267-8.515-13.243-13.049c-0.107-0.338,1.558,1.217,1.874,1.39   c-5.121-4.417-9.698-9.036-17.006-15.844l4.603,3.58c-6.212-5.08-18.835-18.026-27.397-27.185c0.896,1.069,2.606,2.901,1.444,1.937   c-5.326-5.082-8.906-9.363-6.227-7.222c-5.508-4.66-19.013-19.727-26.493-26.104c0,0-2.153-1.829-5.383-4.571   c-0.279-0.235-0.563-0.475-0.854-0.72c-0.362-0.292-0.716-0.601-1.125-0.862c-0.786-0.559-1.656-1.046-2.573-1.489   c-1.849-0.857-3.946-1.397-6.113-1.506c-4.327-0.263-8.977,1.426-12.12,4.591c-1.573,1.551-2.807,3.434-3.583,5.437   c-0.781,2.002-1.106,4.102-1.03,6.09c0.128,4.007,1.932,7.462,4.05,9.65c0.272,0.267,0.538,0.529,0.799,0.785   c0.195,0.167,0.387,0.331,0.573,0.49c0.368,0.313,0.717,0.609,1.045,0.888c0.656,0.557,1.228,1.043,1.699,1.443   c0.942,0.8,1.48,1.257,1.48,1.257c-1.258-1.127-2.587-2.351-3.926-3.645c-0.355-0.477-0.689-0.926-0.993-1.333   c-0.375-0.48-0.65-0.958-0.885-1.358c-0.464-0.803-0.659-1.376-0.668-1.498c0.006-0.133,0.236,0.164,0.827,0.953   c0.333,0.367,0.718,0.892,1.323,1.44c0.147,0.14,0.302,0.288,0.464,0.443c0.133,0.112,0.272,0.23,0.418,0.353   c0.289,0.244,0.605,0.511,0.949,0.801c-0.328-0.295-0.628-0.564-0.903-0.812c-0.139-0.123-0.272-0.24-0.399-0.352   c-0.157-0.153-0.308-0.301-0.452-0.441c-0.597-0.556-1.009-1.1-1.4-1.557c-0.711-0.967-1.201-1.715-1.628-2.663   c-0.443-0.939-0.833-2.095-1.007-3.936c-0.125-1.809-0.042-4.48,1.803-7.695c-1.334,2.597-1.197,4.461-0.878,3.853   c0.199-0.277,0.474-1.153,1.273-2.58c0.8-1.402,2.173-3.427,4.943-5.121c3.424-2.196,7.69-2.531,11.285-1.251   c1.795,0.606,3.474,1.715,4.748,2.923c1.049,0.956,2.083,1.896,3.102,2.824c4.089,3.703,7.999,7.169,11.879,10.593   c7.759,6.846,15.396,13.519,24.093,21.563c0.272,0.964,13.512,14.01,19.819,20.479c-2.81-2.066-7.656-6.702-12.651-11.546   c3.075,3.1,8.369,8.436,12.296,12.396L173.823,151.476z" fill="#202020"/><path d="M131.041,111.018c0.417,0.479,0.863,0.96,1.323,1.452C132.139,112.188,131.747,111.752,131.041,111.018z" fill="#202020"/><path d="M157.704,136.692c-0.075-0.048-0.064-0.017-0.1-0.024c0.525,0.507,1.05,1.015,1.587,1.534   C158.667,137.67,158.075,137.069,157.704,136.692z" fill="#202020"/><path d="M101.588,118.349c1.147,0.982,1.993,1.707,3.14,2.688c-0.682-0.629-1.536-1.418-2.359-2.178   C101.569,118.152,101.163,117.84,101.588,118.349z" fill="#202020"/><path d="M104.564,122.542l-0.711-0.426c0.446,0.469,0.759,0.798,1.153,1.214   C105.207,123.377,105.138,123.179,104.564,122.542z" fill="#202020"/><path d="M238.575,222.483l1.778,1.627C239.321,223.091,238.849,222.679,238.575,222.483z" fill="#202020"/><path d="M193.024,171.851c-6.211-6.144-1.255-0.222-9.997-8.959l2.533,2.597   c-6.491-6.049-17.41-17.171-24.878-24.604c1.046,0.635-4.268-4.768-3.077-4.216c-5.168-5.018-10.282-9.99-13.235-12.285   c-3.047-3.263-8.131-7.766-12.005-11.914c1.5,1.887-6.365-5.058,3.634,4.469c-0.814-0.762-0.364-0.223-1.17-0.975   c6.02,6.558,8.998,8.623,14.422,14.034c3.048,3.429-5.604-4.989-2.625-1.856c6.942,6.587,20.998,21.457,21.267,20.292   c4.974,4.873,5.495,5.71,6.832,7.31c8.552,7.023,28.573,29.229,29.479,28.181c-2.882-2.804-7.493-7.458-11.875-11.42   L193.024,171.851z" fill="#202020"/><path d="M91.908,106.248c-0.083-0.31-0.149-0.677-0.192-1.035c-0.056-0.356-0.095-0.7-0.092-0.966   c0.001,0.3,0.043,0.633,0.094,0.976C91.758,105.567,91.819,105.918,91.908,106.248z" fill="#202020"/><path d="M166.289,188.813l-3.223-1.945c-14.862-14.558-20.001-20.056-32.889-32.892   c-0.895-1.07,0.721,0.435,1.541,1.198c-9.116-8.968-22.512-22.632-29.388-28.921c-2.873-2.882-10.222-10.638-7.176-7.967   c-0.724-0.677-1.499-1.402-2.301-2.152l-0.599-0.575c-0.219-0.217-0.342-0.317-0.71-0.718c-0.646-0.663-1.221-1.404-1.75-2.182   c-0.074-0.248,0.19,0.057,0.651,0.633c0.226,0.293,0.512,0.643,0.857,1.002c0.17,0.182,0.348,0.372,0.53,0.568l0.233,0.238   l0.182,0.178c0.977,0.954,2.014,1.979,2.154,1.931c-1.261-1.292-1.714-1.834-2.08-2.055c2.345,1.95-1.449-3.007,8.552,7.023   c3.341,4.415-7.009-6.885-5.312-4.003c3.318,3.326,3.161,2.71,3.518,2.923c4.22,4.247,3.96,4.284,3.6,4.194   c1.806,1.438,6.875,7.019,9.395,8.98c8.278,8.187-0.893-0.004,4.492,5.367l3.699,2.5l8.827,9.054   c13.153,12.732-0.815-2.887,14.317,11.568c-2.256-1.631,3.151,4.828,9.912,11.838c-4.142-4.097-12.147-11.321-17.287-16.817   c7.027,7.966-10.375-10.262-7.022-5.834c3.959,3.451,10.171,9.594,14.852,14.55l-1.634-1.524c5.06,5.187,9.565,8.438,16.396,15.749   c3.533,3.494,2.706,3.005,1.947,2.527C163.637,186.131,166.412,188.671,166.289,188.813z M158.509,181.283l-4.641-4.76   C154.884,177.739,156.64,179.487,158.509,181.283z" fill="#202020"/><path d="M375.859,367.195c-0.451-0.482-0.97-1.039-1.379-1.477C374.764,366.058,375.292,366.612,375.859,367.195z" fill="#202020"/><path d="M144.347,359.448l-2.742,2.703C142.688,361.108,143.563,360.24,144.347,359.448z" fill="#202020"/><path d="M103.285,411.485c0-0.001,0.437-0.003,0.826-0.154c0.394-0.133,0.709-0.359,0.709-0.359   c-0.269,0.142-0.523,0.242-0.774,0.343C103.789,411.374,103.542,411.464,103.285,411.485z" fill="#202020"/><path d="M408.281,399.701l0.129,0.137c0.233,0.211,0.413,0.373,0.659,0.596L408.281,399.701z" fill="#202020"/><path d="M223.529,295.521c0.656-0.556,1.382-1.189,2.348-2.084C225.706,293.489,224.835,294.275,223.529,295.521z" fill="#202020"/><path d="M102.968,411.485c0.043,0.012,0.067,0.019,0.102,0.027c0.069-0.009,0.142-0.002,0.216-0.027   C103.284,411.504,102.97,411.475,102.968,411.485z" fill="#202020"/><path d="M173.012,334.279c0.564-0.604,1.077-1.153,1.683-1.803C173.885,333.31,173.404,333.837,173.012,334.279z" fill="#202020"/><path d="M167.475,336.419c0.612-0.643,1.193-1.261,1.634-1.754L167.475,336.419z" fill="#202020"/><path d="M229.294,235.07l-3.751-3.579C227.354,233.283,228.463,234.325,229.294,235.07z" fill="#202020"/><path d="M177.568,327.11c0.186-0.241,0.372-0.481,0.487-0.65C177.567,326.985,177.361,327.261,177.568,327.11z" fill="#202020"/><path d="M354.353,342.117c0.085,0.082,0.175,0.171,0.225,0.22l0.163,0.023L354.353,342.117z" fill="#202020"/><path d="M344.568,334.077c-1.066-1.035-2.178-2.112-3.27-3.171C342.49,332.105,343.674,333.252,344.568,334.077z" fill="#202020"/><path d="M282.901,291.879c0.884,1.057,3.058,3.438,1.896,2.474C286.779,296.085,286.958,295.658,282.901,291.879z" fill="#202020"/><path d="M375.973,356.234c-0.665-0.504-1.454-1.168-2.244-1.836C375.173,355.668,376.435,356.785,375.973,356.234z" fill="#202020"/><path d="M373.729,354.398c-0.716-0.625-1.481-1.293-2.122-1.852C372.344,353.206,373.06,353.831,373.729,354.398z" fill="#202020"/><path d="M255.782,275.143c-0.144,0.063-0.373,0.224-0.681,0.51C255.213,275.705,255.45,275.503,255.782,275.143z" fill="#202020"/><path d="M338.792,328.208c-0.721-0.435-15.033-14.127-3.329-2.276c-0.899-0.01-7.762-7.351-11.012-10.38   c2.177,2.385-1.42-0.849-0.887,0.003c1.611,1.503,3.591,3.227,6.133,5.833c0.98,1.387-3.063-2.382-6.037-5.508   c3.522,3.992-5.121-4.416,0.018,1.082c11.525,11.213,19.722,19.086,28.366,26.432c-6.587-6.374-13.97-13.491-19.106-18.985   l2.619,1.85c5.669,6.346,9.631,9.802,15.503,15.746l-13.068-13.478c-5.897-6.537-1.664-2.451,3.307,2.38   C340.098,329.696,339.03,328.582,338.792,328.208z" fill="#202020"/><path d="M351.111,333.776l-0.211-0.233c-0.209-0.181-0.459-0.413-0.599-0.521L351.111,333.776z" fill="#202020"/><path d="M222.186,243.531l-1.286-0.995C221.918,243.423,222.257,243.671,222.186,243.531z" fill="#202020"/><path d="M357.165,343.557l-0.01-0.01C357.249,343.634,357.271,343.655,357.165,343.557z" fill="#202020"/><path d="M225.93,264.665c0.03-0.05,0.059-0.102,0.119-0.185C225.958,264.594,225.969,264.605,225.93,264.665z" fill="#202020"/><path d="M226.64,280.543c0.07-0.034,0.103-0.033,0.244-0.139C227.469,279.776,227.157,280.052,226.64,280.543z" fill="#202020"/><path d="M225.945,264.722c-0.012-0.012-0.042-0.005-0.015-0.058C225.921,264.699,225.884,264.76,225.945,264.722z" fill="#202020"/><path d="M90.483,407.167c0,0,0.048-0.197,0.135-0.548c0.074-0.353,0.216-0.85,0.422-1.443   c0.034-0.242,0.008-0.251-0.098,0.051C90.829,405.527,90.639,406.138,90.483,407.167z" fill="#202020"/><path d="M117.215,377.415c0.188-0.158,0.299-0.251,0.54-0.455L117.215,377.415z" fill="#202020"/><path d="M278.193,283.706c-1.342-1.354-2.361-2.354-3.231-3.19C275.935,281.508,276.999,282.569,278.193,283.706z" fill="#202020"/><path d="M226.049,264.48c0.243-0.325,0.606-0.771,1.222-1.491C226.59,263.78,226.243,264.212,226.049,264.48z" fill="#202020"/><path d="M134.947,391.674c-0.276,0.306-0.534,0.591-0.795,0.88c0.173-0.161,0.346-0.321,0.517-0.479   L134.947,391.674z" fill="#202020"/><path d="M149.44,377.748c-0.441,0.528-0.619,0.797-0.851,1.107c4.912-5.23,14.402-14.374,15.097-15.887   c-1.711,1.731-10.874,10.413-9.593,8.652c-3.433,3.638-8.946,8.577-10.782,10.548c6.027-5.58,0.973-0.282-2.808,3.774   c-3.683,3.443,0.341-1-2.804,1.993l-8.2,8.29l7.236-7.128l-1.788,2.575c0.252-0.279,0.425-0.471,0.695-0.77   C147.61,378.569,137.251,390.448,149.44,377.748z" fill="#202020"/><path d="M148.589,378.855c-0.735,0.785-1.373,1.482-1.85,2.044C147.879,379.746,148.284,379.261,148.589,378.855z" fill="#202020"/><path d="M198.881,329.862c0.606-0.643,1.263-1.339,2.088-2.214C200.576,328.065,199.665,329.032,198.881,329.862z" fill="#202020"/><path d="M131.949,147.588c0.097,0.33,6.938,7.648,7.114,7.219c-2.07-2.133-4.155-4.281-6.25-6.439L131.949,147.588z   " fill="#202020"/><path d="M333.273,346.498c-0.786-0.79-1.574-1.584-2.363-2.378c-0.187-0.152-0.367-0.299-0.507-0.413   C330.84,344.233,332.456,345.738,333.273,346.498z" fill="#202020"/><path d="M156.138,369.291c-1.252,1.345-1.782,1.97-2.046,2.33C154.909,370.757,155.646,369.942,156.138,369.291z" fill="#202020"/><path d="M332.998,347.663c0.918,1.091,2.266,2.703,2.36,3.028c2.053,2.058,3.654,3.342,5.804,5.378   C338.757,353.752,336.056,350.99,332.998,347.663z" fill="#202020"/><path d="M341.338,356.233c-0.062-0.057-0.122-0.113-0.176-0.164C341.223,356.126,341.277,356.177,341.338,356.233z" fill="#202020"/><path d="M127.865,143.247c-0.629-0.588-1.278-1.194-1.945-1.818l1.061,0.899c-1.598-1.66-3.187-3.31-4.779-4.962   c-0.602-0.573-1.253-1.194-2.054-1.958c0.326,0.305,0.602,0.517,0.787,0.635c-0.517-0.54-1.021-1.068-1.525-1.596   c-4.191-3.565-14.072-12.987-17.041-15.587c-1.909-1.775-4.009-3.771-5.983-5.679c-0.502-0.493-0.959-0.913-1.471-1.445   c-0.55-0.561-1.023-1.167-1.437-1.782c-0.822-1.237-1.308-2.546-1.569-3.706c0.443,2.184,1.894,4.426,3.204,5.631   c1.104,1.032,1.771,1.581,1.336,0.972c-0.32-0.345-0.629-0.68-0.931-1.005c-0.295-0.317-0.642-0.75-0.937-1.112   c-0.555-0.797-1.037-1.597-1.36-2.453c-0.684-1.69-0.957-3.479-0.78-5.4c0.079-0.959,0.286-1.955,0.661-2.969   c0.358-1.017,0.887-2.06,1.653-3.058c1.489-1.978,3.968-3.968,7.612-4.535c0,0-0.132,0.019-0.364,0.052   c-0.23,0.042-0.566,0.061-0.954,0.17c-0.788,0.158-1.801,0.523-2.758,1.002c-0.934,0.521-1.821,1.135-2.389,1.701   c-0.305,0.261-0.527,0.51-0.682,0.686c-0.157,0.173-0.246,0.272-0.246,0.272s0.191-0.233,0.525-0.64   c0.364-0.38,0.89-0.926,1.621-1.48c1.441-1.118,3.784-2.161,6.305-2.285c1.252-0.061,2.52,0.084,3.675,0.386   c1.164,0.289,2.176,0.8,3.022,1.268c0.401,0.267,0.78,0.505,1.095,0.742c0.305,0.251,0.57,0.47,0.789,0.65   c0.36,0.319,0.565,0.501,0.565,0.501c0.991,1.13,1.088,1.339,0.646,0.993c-0.221-0.173-0.577-0.484-1.023-0.888   c-0.112-0.102-0.23-0.209-0.354-0.322c-0.149-0.126-0.305-0.258-0.465-0.394c-0.313-0.282-0.678-0.544-1.068-0.804   c-1.538-1.082-3.651-1.793-5.504-1.931c-1.859-0.162-3.406,0.222-4.029,0.48c3.66-1.063,7.649,0.031,10.19,2.347   c0.678,0.604,1.132,1.113,1.649,1.643c0.503,0.527,0.999,1.045,1.485,1.555c0.968,1.023,1.9,2.01,2.795,2.957   c3.575,3.789,6.549,6.915,9.023,8.807c0.27,0.96,0.726,2.568,6.941,8.715c-4.063-4.85,3.958,3.452,0.724-0.625   c2.333,1.938,6.771,7.019,7.384,7.116l-0.721-0.435c10.007,11.1,14.319,13.699,19.115,17.932   c12.777,12.495,18.357,18.522,28.722,28.771c0.174,0.636,2.343,4.078,6.502,8.189c2.235,1.609,11.707,10.791,13.06,11.341   c-7.225-7.559-6.384-5.711-10.903-10.043c-3.263-4.104,0.082-0.75-4.698-6.032c3.897,4.225,18.566,18.128,22.619,22.97   l-1.625-1.515c6.859,7.338,7.224,9.687,19.65,20.913l5.889,5.397c-0.312-0.232-0.39-0.216-0.571-0.325   c4.598,4.64,6.152,6.443,7.876,8.316c0.863,0.937,1.768,1.891,3.117,3.226c0.664,0.643,1.43,1.385,2.345,2.271   c0.836,0.78,1.809,1.688,2.962,2.764c-0.703-0.648-0.284-0.141-1.011-0.813c0.884,0.962,1.799,1.915,2.707,2.83   c1.081-1.073,2.154-2.18,3.18-3.264c1.045-1.123,2.07-2.224,3.063-3.291c2.12-2.297,4.086-4.462,5.861-6.316   c3.017-2.348-0.308,0.966-1.725,2.867c10.354-10.097,20.817-21.706,26.76-28.464l6.788-6.396c-3.771,4.047-8.196,9.178-6.802,8.187   c3.558-3.692,2.698-3.148,7.89-8.211c-0.661,1.088-2.612,3.438-4.754,6.118c10.961-10.246,1.612-3.129,9.688-9.893   c3.335-3.327,4.958-5.574,5.063-6.197l6.374-5.697c0.342-1,7.773-8.469,12.606-13.402c0.455-0.738-4.281,3.58-6.006,5.559   c0.106-0.623,5.18-5.939,8.526-9.275c1.913-0.534,21.773-21.974,18.637-17.211c14.782-15.231,35.795-36.383,45.411-46.576   c0.864-0.769,1.929-1.761,2.983-2.75c0.533-0.496,1.017-0.977,1.631-1.482c0.586-0.479,1.182-0.875,1.732-1.157   c1.093-0.592,1.957-0.793,2.144-0.783c0.201,0.034-0.309,0.191-1.602,0.977c4.076-2.171,8.691-1.419,11.68,0.856   c3.059,2.249,4.669,5.902,4.466,9.489c-0.094,1.796-0.648,3.578-1.604,5.172c-0.249,0.39-0.516,0.777-0.805,1.147   c-0.3,0.344-0.633,0.747-0.912,1.026c-0.584,0.607-1.176,1.222-1.778,1.849c-2.419,2.499-5.048,5.146-8.093,8.096   c-1.078,0.906,5.414-5.426,4.758-5.23c-7.561,8.113-14.551,13.967-26.527,26.312c2.033-2.058,2.487-2.797,2.7-3.153   c0.327-0.099-4.744,5.219-7.779,8.476c-1.827,1.708,2.271-2.438,1.192-1.534c-23.825,23.155-40.783,41.989-64.178,65.321   c6.682-6.663,8.746-9.642,8.63-9.9l-6.544,6.528c-2.29,2.747-7.198,7.654-11.132,11.928c-0.59,0.418-2.679,2.322-0.75,0.178   c-13.374,12.449-19.333,21.001-35.393,36.587l18.238-20.082l-5.062,4.42l8.005-8.843c-5.283,4.778-9.075,9.738-10.027,9.997   c0.966-1.16,3.559-3.691,3.452-3.958c-4.966,4.695-5.088,5.333-8.652,9.031c8.863-10.272,27.633-29.019,37.557-39.288   c1.533-1.644-1.19,1.53-1.399,1.883c4.096-4.143,6.788-6.396,11.852-11.704c2.922-3.518-2.676,2.238-5.263,4.763   c0.093-0.611,1.395-1.881,4.201-4.767c0.964-0.273,15.747-15.502,19.837-18.749c15.099-15.316-3.326,1.538,11.67-13.158l4.83-4.04   c8.313-8.924,19.189-20.342,29.027-30.011l-2.043,2.068c-1.2,1.538,1.166-0.621,2.254-1.535   c7.54-7.201,13.683-14.304,18.544-18.374c1.004-1.098,2.091-2.288,3.243-3.548c0.579-0.627,1.176-1.271,1.785-1.931l0.462-0.497   l0.335-0.411c0.241-0.257,0.4-0.578,0.607-0.863c0.347-0.618,0.631-1.277,0.817-1.976c0.166-0.705,0.247-1.433,0.23-2.167   c-0.074-1.467-0.564-2.918-1.45-4.088c-0.885-1.176-2.122-2.079-3.48-2.517c-1.354-0.451-2.84-0.477-4.146-0.081   c-0.654,0.19-1.276,0.459-1.82,0.831c-0.289,0.157-0.523,0.394-0.785,0.581l-0.347,0.339l-0.186,0.178l-0.242,0.253   c-1.29,1.35-2.531,2.648-3.706,3.877c-0.778,0.518-0.411-0.034,0.634-1.222c0.523-0.593,1.216-1.346,2.02-2.203   c0.201-0.214,0.409-0.435,0.622-0.661l0.325-0.344c0.112-0.119,0.179-0.171,0.271-0.262c0.333-0.339,0.72-0.656,1.15-0.925   c0.854-0.553,1.884-0.943,2.959-1.093c1.074-0.16,2.179-0.038,3.158,0.251c1.989,0.57,3.355,1.93,4.048,2.76   c0,0-0.089-0.12-0.244-0.33c-0.139-0.224-0.411-0.485-0.706-0.824c-0.636-0.639-1.617-1.358-2.747-1.757   c-1.119-0.422-2.336-0.542-3.229-0.47c-0.897,0.063-1.473,0.243-1.473,0.243c1.432-0.383,2.728-0.33,3.813-0.099   c1.091,0.229,1.987,0.629,2.761,1.099c0.778,0.466,1.432,1.027,1.998,1.667c0.567,0.639,1.083,1.359,1.462,2.255   c-0.656-2.208-2.097-3.684-3.531-4.559c-1.464-0.873-2.985-1.168-4.435-1.111c-1.446,0.094-2.859,0.507-4.14,1.386   c-0.333,0.197-0.623,0.474-0.941,0.726c-0.286,0.292-0.571,0.553-0.975,0.997c-0.76,0.799-1.573,1.654-2.459,2.585   c0.424-0.707-0.634,0.176-3.99,3.525l-0.606,1.298c-0.09,0.034-0.487,0.378-1.545,1.391l-12.722,13.145   c2.893-2.596,3.326-2.428,6.671-5.765c-1.395,0.991,1.399-1.883,4.749-5.221c-2.704,3.155,3.45-3.07,3.565-2.813   c-6.712,6.694-14.901,14.976-19.201,19.465l-1.746,1.109c-6.468,6.307-13.036,13.231-17.462,17.471l1.196-1.535   c-7.761,7.566-15.103,15.318-22.218,21.813c-6.473,7.2-14.775,16.109-19.982,22.077c-2.577,3.399-20.575,19.543-27.704,27.83   c-0.563,0.475,4.984-5.604,7.459-8.389c-5.19,5.063-8.756,9.65-10.795,10.825c11.65-11.36-0.963,0.273,4.096-5.032   c-5.378,5.394-10.98,11.152-13.468,13.949c8.715-8.721-2.498,3.694,6.139-5.32c-3.167,3.523-6.982,7.59-11.023,11.762   c-2.021,2.086-4.097,4.198-6.177,6.281c-3.146,3.116-6.272,6.212-9.298,9.209c-0.293-0.299-0.566-0.578-0.838-0.856   c0.138-0.234-1.388-1.935-5.802-6.504c0,0-0.969-0.834-1.938-1.668c-0.696-0.561-1.393-1.122-1.393-1.122   c-0.941-0.966-0.931-1.008-0.504-0.649c0.209,0.183,0.528,0.461,0.885,0.773c0.375,0.335,0.792,0.707,1.174,1.048   c1.054,0.968,1.91,1.735,1.808,1.553c-0.05-0.09-0.34-0.417-0.959-1.07c-0.485-0.503-1.223-1.27-2.289-2.376   c-8.362-7.436-23.523-24.049-27.838-26.651c-5.682-6.358,11.798,11.113,3.139,1.626c5.588,4.969,12.515,12.604,14.682,13.916   c-5.295-5.051-1.526-2.25-4.86-5.591l-6.034-5.506l1.26,1.292c-10.086-9.278-25.232-24.813-37.666-37.108   c-10.904-10.042-18.736-16.63-31.251-29.239c3.96,3.456-10.19-10.676-1.819-3.231c-2.795-3.018-5.693-5.896-7.93-8.01   c-2.237-2.114-3.813-3.465-3.963-3.429c5.05,5.179,1.738,1.859,5.955,6.258c-3.135-2.682-9.827-9.395-12.433-12.296   c1.26,1.293,0.818,0.764,1.17,0.974c-5.955-6.258-3.151-2.701-7.659-7.02c-1.083-1.717-9.659-9.829-13.525-14.022l-6.295-5.392   c1.754,1.457,0.381,0.03-1.511-1.911c-0.473-0.485-0.978-1.003-1.476-1.515c-0.243-0.251-0.485-0.5-0.721-0.743   c-0.143-0.127-0.273-0.262-0.398-0.391c-0.528-0.474-1.028-0.75-1.156-0.917c-1.598-0.558-3.269-0.27-4.633,0.56   c-1.347,0.857-2.596,2.391-2.685,4.674c-0.028-0.469-0.079-0.456-0.141-0.146c-0.051,0.306-0.095,0.922,0.053,1.584   c0.128,0.665,0.427,1.357,0.743,1.866c0.143,0.271,0.309,0.458,0.404,0.655c0.206,0.268,0.316,0.446,0.292,0.498   c10.639,11.216,18.919,17.275,28.836,28.057c-0.392-0.251-2.679-2.142,0.271,0.959c2.467,2.298,6.603,6.506,9.186,9.022   l-0.089-0.072c0.052,0.046,0.085,0.075,0.141,0.125c1.265,1.232,2.087,1.98,2.191,1.938c4.658,4.069,7.21,6.017,16.048,14.355   c-0.285-0.976-7.669-8.092-10.92-11.12l-3.054-2.373c-2.072-3.113-7.835-7.654-9.634-9.804   c5.762,4.542,20.449,19.528,29.724,28.053c-4.946-5.907-16.676-17.788-27.034-28.029l4.33,4.743l-5.396-5.383l4.85,5.583   c-5.041-5.169-9.548-9.489-14.141-14.123c5.409,5.395,7.038,7.975,4.056,4.844c-5.681-6.358-6.494-6.053-11.075-10.675   c2.53,2.593,5.856,5.931,3.51,3.98c-8.659-9.487-11.379-11.668-19.188-20.362c0.112,0.399-0.48-0.042-1.458-0.939   c-0.122-0.113-0.25-0.232-0.384-0.357c-0.054-0.057-0.111-0.115-0.17-0.177c-0.133-0.106-0.224-0.257-0.344-0.398   c-0.197-0.307-0.422-0.649-0.528-1.054c-0.119-0.397-0.2-0.823-0.208-1.241c0.009-0.416,0.048-0.816,0.127-1.167   c0.161-0.698,0.406-1.207,0.399-1.453c0.007,0.004-0.112,0.106-0.215,0.306c-0.128,0.184-0.267,0.451-0.377,0.73   c-0.229,0.559-0.3,1.177-0.3,1.177c-0.004,0-0.008-0.083,0.009-0.225c-0.001-0.145,0.014-0.35,0.06-0.594   c0.083-0.487,0.288-1.127,0.661-1.705c0.368-0.587,0.896-1.087,1.331-1.377c0.207-0.172,0.421-0.241,0.547-0.339   c0.144-0.062,0.226-0.097,0.226-0.097c0.652-0.137,1.078-0.103,1.321-0.054c0.245,0.058,0.313,0.102,0.284,0.157   c-0.063,0.103-0.511,0.199-0.849,0.348c-0.341,0.146-0.565,0.316-0.325,0.306c0.124,0.012,0.363-0.031,0.778-0.033   c0.407,0.02,1.02,0.019,1.73,0.35c0.342,0.107,0.623,0.285,0.889,0.447c0.116,0.107,0.263,0.163,0.363,0.281   c0.055,0.051,0.112,0.099,0.17,0.144c0.016,0.007,0.075,0.063,0.147,0.135l0.194,0.19c1.036,0.995,1.939,1.862,2.747,2.638   c1.633,1.535,2.915,2.674,4.13,3.74c2.431,2.132,4.594,3.97,8.752,8.084c-1.533-1.192-4.013-3.356-6.943-6.057   c-1.465-1.351-3.042-2.835-4.67-4.4c-1.494-1.455-3.048-2.969-4.61-4.489l3.515,3.814c-0.584-0.485-1.597-1.429-2.858-2.644   c-0.158-0.152-0.319-0.308-0.485-0.468c-0.069-0.064-0.195-0.195-0.221-0.208l-0.1-0.076c-0.119-0.122-0.269-0.204-0.406-0.31   c-0.296-0.175-0.623-0.328-0.984-0.429c-0.724-0.213-1.569-0.122-2.237,0.151c-0.669,0.267-1.199,0.8-1.516,1.24   c0.432-0.826,0.784-1.083,0.721-1.114c-0.028-0.025-0.42,0.173-0.809,0.653c-0.387,0.462-0.731,1.168-0.846,1.935   c-0.041,0.382-0.044,0.76-0.022,1.104c0.049,0.337,0.09,0.645,0.147,0.885c0.279,0.059,0.136-0.491,0.195-0.722   c0.016-0.114,0.053-0.144,0.143,0.016c0.105,0.148,0.233,0.519,0.708,0.988c-0.377-0.486-0.507-0.964-0.583-1.389   c-0.066-0.428-0.048-0.819,0.04-1.205c0.091-0.386,0.254-0.769,0.568-1.164c0.312-0.404,0.809-0.829,1.519-1.037   c-0.744,0.25-1.343,0.8-1.598,1.344c-0.305,0.524-0.319,1.085-0.28,1.533c0.157,0.926,0.654,1.399,1.165,1.657l0.088,0.058   l0.308,0.259l0.63,0.531c0.419,0.358,0.843,0.719,1.278,1.09c0.867,0.748,1.772,1.548,2.771,2.466   c1.998,1.837,4.366,4.148,7.542,7.462c-6.132-5.833,1.61,2.562,2.17,3.442c2.855,2.775,8.644,8.408,11.075,10.674l-1.649-2.603   c7.767,7.356,9.385,10.992,18.604,19.228c1.419,0.849-7.58-7.773-5.955-6.259c12.24,11.642,15.774,16.711,26.019,27.672   c0.743,0.457,0.921,0.031,4.881,3.488c-1.451-0.879,1.146,2.011-3.234-1.952c3.424,3.666,7.833,7.655,11.072,10.671   c-7.212-7.547,3.43,2.608,4.961,3.797c3.774,3.871-1.451-0.88-3.885-3.149c2.992,3.146,6.218,7.213,8.389,8.528   c-0.181,0.422-9.371-7.787-15.138-13.398l3.787,3.883c-2.796-2.488-3.247-3.026-7.007-6.88c3.494,3.96,2.868,3.85,1.785,3.196   c-0.444-0.532,0.344,0.2-0.08-0.309c-2.989-3.142-5.423-5.412-4.873-4.541c-3.161-2.352,4,4.505,5.875,6.784   c1.597,1.542,3.194,3.085,4.76,4.598l17.227,14.629c6.956,6.654,9.705,10.024,14.62,15.332l1.75,1.056   c5.885,5.957,11.362,11.654,7.127,8.299c-0.097-0.329-0.906-1.083-2.175-2.386c-0.217-0.123-0.547-0.386-0.949-0.733   c-0.148-0.097-0.231-0.152-0.354-0.232c6.459,6.223,10.491,10.108,10.863,10.466c-11.271-10.263-1.168,0.093-3.586-1.093   l11.076,10.674c-6.397-6.787,0.18-0.422,2.604,1.834c0.131,0.437,1.841,2.183,4.036,4.33c3.226,3.16,7.11,6.966,10.165,9.959   c-0.887,0.886-1.7,1.697-2.417,2.413l0.311-0.453c-1.386,1.35-3.031,2.952-4.828,4.702c-1.392,1.384-2.901,2.884-4.443,4.416   c-2.535,2.545-5.151,5.226-7.306,7.474c0.317-0.085-4.766,6.131-7.139,9.186c7.686-7.426,3.341-2.804,4.161-3.194   c-0.801,0.763-2.211,2.164-2.331,2.372c-0.983,1.181,1.599-1.336,1.927-1.435c3.938-4.095,7.932-8.246,11.345-11.794   c2.11-2.241,4.04-4.291,5.692-6.046c2.33-2.479,4.171-4.508,5.366-5.945c-2.327,2.108-4.017,3.903-5.83,5.839   c-0.86,0.912-1.734,1.839-2.666,2.825c-0.573,0.605-1.2,1.231-1.927,1.885c0.517-0.608,1.064-1.232,1.643-1.874   c0.163-0.179,0.328-0.358,0.494-0.54c0.26-0.273,0.523-0.549,0.788-0.828c0.53-0.552,1.07-1.115,1.622-1.689   c2.206-2.285,4.587-4.704,7.181-7.313c-3.536-3.54-7.488-7.496-11.88-11.893l-1.898-2.478l-6.872-6.559   c2.956,2.65,1.572,0.659,8.676,7.647c-0.626-1.173-7.049-6.925-11.271-11.331l-2.591-1.822c1.064,0.636-8.128-8.64-1.275-2.372   l10.989,10.359l-2.704-3.229l9.098,8.95l-2.328-1.93c0.896,0.871,1.699,1.651,2.421,2.352c0.983,0.976,1.855,1.841,2.63,2.611   c2.164,2.167,3.773,3.806,4.996,5.078c2.447,2.545,3.353,3.623,4.183,4.617c-1.222,1.049-2.342,2.003-4.823,4.42   c-1.241,1.21-2.822,2.784-4.948,4.94c-0.48,0.489-0.992,1.012-1.539,1.568c-0.322,0.336-0.665,0.693-1.028,1.074   c-0.724,0.765-1.533,1.62-2.442,2.581c-4.101,5.034-8.961,9.995-18.019,18.824c6.367-6.575,0.336-0.992,2.501-3.698   c-6.796,6.406-8.639,9.02-11.882,12.625c-1.927,1.436-3.324,2.43,2.608-3.431c0.223-1.255-7.668,7.846-8.736,7.853   c-19.519,19.55-13.938,17.368-37.436,39.539l0.642-1.07c-14.233,14.767-22.854,22.877-36.113,36.473l-11.117,10.027   c2.281-2.447,8.23-9.212,5.001-6.508c5.693-4.591,10.958-10.241,16.795-15.487c0.423-0.708-1.937,1.444-3.008,2.339   c3.348-3.339,5.273-4.77,9.594-9.281c-0.327,0.1-5.282,4.78-1.717,1.082l6.347-5.668c7.876-8.2,3.147-4.771,12.744-14.057   c-1.453,2.059-4.6,6.081-8.183,9.81c4.379-4.249-5.568,5.934-1.45,2.178c5.767-6.663,9.122-9.309,17.105-17.854   c-0.908,1.033-1.077,1.378-3.083,3.438l12.18-11.802c-3.229,2.705,9.617-10.192,8.112-9.466   c-12.94,12.617-8.95,9.098-23.733,23.438c4.034-4.211,8.954-9.923,11.08-12.778c0.142-0.111,0.365-0.31,0.819-0.75   c1.84-2.61-0.532-0.446-1.163-1.163c-6.168,7.126-11.006,11.176-18.571,19.292c-1.105,1.844,5.02-4.078,8.821-8.07l-6.663,7.151   l1.19-1.53l-17.655,17.408c3.303-3.342,4.217-4.684,5.789-6.579c-2.277,2.248-4.614,4.392-7.104,6.667   c0.853-0.148,0.786,0.415-1.427,2.615c-11.363,11.196-17.95,17.149-22.515,20.91c-0.424,0.441-0.903,0.938-1.289,1.338   c2.252-1.53-7.361,8.659-10.488,12.523c-0.1-0.273-1.609,1.124-3.523,2.973c-0.955,0.926-2.019,1.957-3.05,2.958   c-0.514,0.49-1.02,0.974-1.5,1.433c-0.139,0.147-0.282,0.285-0.424,0.415c-0.118,0.148-0.238,0.286-0.359,0.414   c-0.125,0.806,0.281,0.797,0.896,0.488c0.171-0.066,0.318-0.179,0.536-0.264c0.105-0.05,0.195-0.094,0.311-0.166   c0.196-0.142,0.402-0.291,0.618-0.447c0.857-0.635,1.847-1.419,2.924-2.321c7.235-8.019,3.879-4.669,6.927-8.828l11.864-12.604   l-2.393,3.076c6.257-5.956,11.671-12.272,11.668-11.38c-2.93,3.522-8.438,8.671-11.342,12.17l4.202-3.877   c-6.689,7.563-4.073,3.232-12.397,12.165c3.551-2.796-0.755,0.809-4.198,4.759c3.23-2.704,15.084-15.3,13.134-12.065   c-2.104,2.384-6.065,5.97-10.164,9.781c-2.049,1.906-4.133,3.869-6.035,5.766c-0.951,0.948-1.857,1.881-2.69,2.781   c-0.411,0.456-0.809,0.898-1.193,1.324l-0.279,0.323c-0.058,0.078-0.06,0.107-0.093,0.162c-0.045,0.1-0.117,0.175-0.142,0.277   c-0.009-0.004,0.016-0.185,0.021-0.183c-0.801,0.865-0.981,1.933-0.874,2.765c0.119,0.844,0.487,1.442,0.9,1.847   c0.865,0.842,1.705,0.896,2.415,0.849c0.39,0.131,0.871,0.141,1.331,0.017c0.457-0.143,0.868-0.408,1.216-0.779   c1.056-1.107,2.122-2.224,3.159-3.312c1.089-1.129,2.149-2.227,3.141-3.254l0.088,0.286l5.621-5.776   c-2.373,3.054-6.688,6.669-11.533,11.613l0.956-0.262c-0.368,0.323-0.729,0.639-1.082,0.948c-0.159,0.08-0.271,0.209-0.421,0.27   c-0.26,0.184-0.541,0.282-0.8,0.409c-0.539,0.194-1.088,0.366-1.659,0.385c-0.567,0.028-1.142-0.028-1.71-0.227   c-0.569-0.189-1.133-0.576-1.564-1.083c0.591,0.772,1.542,1.533,2.692,1.773c1.154,0.28,2.469,0.017,3.352-0.666   c0.107-0.091,0.233-0.153,0.324-0.265c0.121-0.126,0.138-0.107,0.425-0.41c0.457-0.47,0.9-0.926,1.327-1.365   c0.85-0.881,1.625-1.701,2.292-2.433c1.335-1.463,2.239-2.572,2.443-3.115l4.291-3.591l1.759-2.011   c3.199-2.673,0.614,0.736-5,6.508c-1.077,0.901-1.615,1.352-1.388,0.979c-1.243,1.398-2.404,2.772-4.063,4.585   c-0.208,0.226-0.424,0.459-0.647,0.701c-0.112,0.12-0.227,0.243-0.343,0.367c-0.114,0.122-0.256,0.275-0.298,0.309   c-0.253,0.257-0.533,0.527-0.891,0.738c-0.69,0.447-1.661,0.785-2.818,0.701c0,0.001,0.623-0.027,1.197-0.209   c0.581-0.172,1.067-0.494,1.067-0.495c-1.216,0.568-2.664,0.585-3.826,0.133c-1.167-0.435-2.09-1.348-2.62-2.284   c-0.531-0.95-0.715-1.991-0.677-2.854c0.028-0.871,0.228-1.574,0.388-2.081c-1.185,1.86-1.048,4.533,0.386,6.262   c1.391,1.81,3.912,2.542,6.062,1.836c0.542-0.148,1.028-0.429,1.491-0.733l0.339-0.243l0.313-0.285   c0.078-0.056,0.284-0.266,0.454-0.434l0.523-0.521c1.394-1.389,2.781-2.771,4.162-4.146c2.756-2.758,5.485-5.488,8.182-8.187   c2.398-3.967,5.735-8.183,6.628-10.534c7.106-7.375,16.836-17.306,23.392-23.328l-0.434,0.722c3.143-2.994,5.932-5.861,8.207-8.302   c3.433-3.051-1.833,2.604,0.529,0.448l10.127-10.615c-0.31,0.97-9.036,9.698-13.156,13.865c0.754-0.81,2.278-2.443,1.727-1.981   c-4.957,4.686-13.375,14.228-15.96,15.858c-2.266,2.432,4.419-5.124-3.557,2.803c-5.504,5.146-6.81,7.308-7.223,8.007   c0.101,0.273,8.613-8.101,5.908-4.946c4.121-4.167,5.53-6.059,11.01-11.178c-4.084,4.13-9.283,10.087-11.762,11.984   c-7.773,8.47-5.731,8.182-1.854,4.4c-1.187,0.637,14.477-15.153,3.469-4.862c4.431-5.137,13.167-13.88,19.205-20.358l-0.213,0.355   l7.681-7.857c-0.996,1.192-3.261,3.624-3.152,3.888l10.26-11.262c-5.721,6.394,3.988-3.521,6.894-6.13   c0.867-1.438,4.86-5.851,0.664-1.98c-4.741,4.325-2.484,2.793-6.585,6.938l5.387-6.289l0.544-0.456l3.145-3.884   c7.978-7.925-2.616,4.331,7.212-6.218l-1.829,0.822c11.87-11.721,27.585-26.305,35.688-34.871c-2.013,2.585-2.567,4.059,0.867,1.17   c-3.681,3.508-10.885,10.747-15.993,15.949c-1.081,0.903,5.846-7.034,11.554-12.526c-3.537,1.891-13.589,14.583-15.081,14.407   c-14.56,13.977-9.84,11.447-22.441,23.068c0.206,0.539-3.261,3.624-3.568,4.59c4.193-2.977,16.169-16.211,24.241-23.857   c-0.743,0.797-2.235,2.401-2.467,2.774c5.728-5.51,7.965-7.913,11.752-11.976l-0.539,0.45c6.494-7.222,4.521-3.965,8.721-7.837   c1.508-1.619,7.228-7.124,6.052-6.495l7.663-6.954l-0.768-0.064c4.098-4.146,5.275-4.773,8.758-8.764l-0.199-0.545l-10.368,10.108   c5.067-5.311,1.089-1.803,6.713-7.582c-5.962,6.776,4.712-4.3,5.685-4.581c0,0,0.996-1.101,1.992-2.202   c0.542-0.595,1.084-1.188,1.491-1.635c0.633-0.672,1.055-1.12,1.055-1.12s-0.421,0.471-0.842,0.94   c-0.194,0.219-0.388,0.438-0.533,0.602c-0.091,0.11-0.152,0.184-0.152,0.184c0.094-0.085,0.185-0.167,0.275-0.248   c0.137-0.129,0.272-0.256,0.403-0.38c0.262-0.249,0.512-0.487,0.754-0.718c0.477-0.465,0.917-0.895,1.333-1.3   c0.824-0.817,1.538-1.554,2.237-2.288c1.397-1.468,2.745-2.937,4.743-4.982c0.8,0.78,1.755,1.729,2.867,2.858   c-0.997-1.056-1.948-2.063-2.867-3.035c-3.037,2.853-5.861,5.502-8.978,8.547c-0.581,0.57-1.175,1.154-1.791,1.758   c-0.476,0.48-0.968,0.978-1.481,1.496c-1.019,1.046-2.105,2.198-3.3,3.507c0.77-0.839,1.683-1.836,2.661-2.902   c1.039-1.113,2.146-2.3,3.236-3.468c3.719-3.854,7.324-7.59,9.652-10.002c3.074,3.026,4.538,4.467,5.389,5.304   c0.987,0.961,1.937,1.885,2.857,2.78c0.825,0.82,1.624,1.615,2.404,2.393c0.969,0.979,1.875,1.929,2.766,2.876   c1.781,1.895,3.502,3.779,5.545,5.864c-4.036-3.887-3.625-2.911-4.155-2.981c-0.266-0.035-0.767-0.332-2.177-1.629   c-0.705-0.648-1.638-1.548-2.881-2.788c-1.88-1.904-4.255-4.309-7.258-7.35c0.485,0.343,2.55,2.439,3.313,3.29   c-1.044-1.367-3.219-3.638-5.804-6.195c-2.491,2.518-5.335,5.507-7.921,8.259c-1.504,1.588-2.012,2.185-2.758,3.015   c-0.7,0.782-1.338,1.495-1.874,2.095c1.161-0.613-2.372,3.055,3.883-2.897c-0.39,0.327-0.495,0.354-0.37,0.143   c0.069-0.112,0.167-0.254,0.369-0.5c0.275-0.311,0.622-0.702,1.03-1.162c1.657-1.832,4.453-4.784,7.641-8.026   c2.489,2.446,5.237,5.216,7.725,7.83c0,0-0.508-0.215-1.016-0.429c-0.481-0.188-0.963-0.377-0.963-0.377l9.175,9.313l-0.818-0.764   c2.802,3.559,9.094,8.948,14.693,14.992c4.412,3.994,20.371,20.286,14.047,12.734c4.858,5.593,9.912,9.711,15.692,15.334   l-6.868-7.347c8.822,7.983,6.131,5.834,13.523,11.892c0.52,0.84,1.887,2.471,0.352,1.273c11.259,11.319,27.215,27.607,34.317,33.75   c7.932,7.983,8.49,9.923,19.927,20.816c2.434,2.27-1.285-2.38,5.938,5.181c0.454,0.541-7.552-6.683,0.728,1.504   c6.313,5.411,13.521,14.02,21.539,21.255c0.243,0.261,0.497,0.533,0.759,0.815c0.117,0.123,0.299,0.321,0.37,0.387l0.21,0.207   c0.28,0.284,0.616,0.52,0.975,0.725c0.725,0.386,1.565,0.613,2.303,0.608c1.479,0.025,2.415-0.515,2.036-0.012   c-1.121,0.457-2.55,0.554-3.823,0.124c-0.635-0.208-1.225-0.533-1.739-0.946c-0.12-0.114-0.243-0.224-0.371-0.328   c-0.21-0.207-0.419-0.412-0.626-0.615c-0.424-0.417-0.84-0.827-1.246-1.227c-3.256-3.196-5.918-5.735-6.691-6.338   c1.097,0.666-4.327-4.745,0.538-0.21c-9.371-9.912-6.479-6.037-14.944-14.871c-0.739-0.454,4.053,4.842,6.034,6.568   c-0.446,0.527-17.291-16.82-10.187-8.547c9.201,9.285,12.961,11.014,20.458,19.536c-3.507-2.914-8.277-8.187-12.868-11.754   l6.386,6.778l5.13,4.426l-0.356-0.213c2.795,3.018,4.896,5.168,6.642,6.854c0.22,0.21,0.432,0.413,0.639,0.611   c0.156,0.128,0.308,0.253,0.455,0.374c0.299,0.221,0.589,0.422,0.893,0.563c0.587,0.323,1.195,0.462,1.773,0.564   c0.587,0.092,1.172,0.063,1.765,0.004c0.593-0.101,1.195-0.264,1.813-0.534c0.618-0.27,1.239-0.67,1.841-1.235   c0.611-0.566,1.157-1.338,1.542-2.297c-0.62,1.042-1.138,1.289-1.337,1.326c-0.211,0.031-0.206-0.199-0.184-0.423   c0.039-0.217,0.019-0.482-0.078-0.523c-0.106-0.054-0.302,0.111-0.861,0.512c1.598-1.43,1.602-3.498,1.214-4.686   c-0.176-0.621-0.443-1.076-0.619-1.429c-0.045-0.087-0.08-0.171-0.105-0.251c-0.07-0.116-0.161-0.25-0.211-0.349   c-0.109-0.206-0.14-0.345-0.085-0.412c0.302,0.289,0.585,0.56,0.851,0.813c0.16,0.192,0.334,0.358,0.45,0.545   c0.129,0.179,0.248,0.347,0.331,0.521c0.109,0.161,0.17,0.33,0.24,0.482c0.252,0.617,0.376,1.082,0.424,1.403   c0.112,0.644,0.183,0.712,0.289,0.743c0.093,0.035,0.197,0.035,0.219,0.667c-0.021,0.309-0.037,0.795-0.301,1.468   c-0.256,0.658-0.718,1.58-1.769,2.437c0.784-0.43,0.439,0.145,0.515,0.375c0.04,0.104,0.227,0.147,0.721-0.203   c0.466-0.352,1.386-1.071,2.053-2.829c0.524-2.058,0.132-2.96,0.081-3.215c-0.132-0.265-0.116,0.04-0.176,0.34   c-0.043,0.3-0.068,0.589-0.133,0.326c-0.051-0.129-0.031-0.402-0.146-0.863c-0.079-0.463-0.256-1.126-0.687-1.954   c-0.142-0.419-0.347-0.851-0.121-0.676c-0.57-0.721-0.99-1.072-1.75-1.817c-0.656-0.642-1.211-1.217-1.79-1.816   c-1.158-1.197-2.418-2.489-4.8-4.591l1.16,0.965c-5.232-5.824-6.383-5.713-10.819-10.794c1.542,2.266-3.492-2.898-6.669-5.624   c4.687,4.961,6.779,8.091,16.326,17.581c1.436,0.863,0.899,0.009,4.946,3.78l-6.222-6.152c1.383,1.288,2.473,2.23,3.754,3.397   c0,0,1.448,1.522,2.897,3.046c0.362,0.38,0.724,0.761,1.063,1.118c0.408,0.412,0.463,0.539,0.647,0.735   c0.141,0.186,0.234,0.354,0.316,0.461c0.084,0.105,0.104,0.184,0.108,0.181c-0.23-0.313-0.453-0.586-0.694-0.803l-0.167-0.171   c-0.097-0.089-0.19-0.176-0.281-0.26c-0.184-0.169-0.357-0.328-0.522-0.479c-0.661-0.604-1.187-1.07-1.61-1.433   c-0.848-0.724-1.289-1.031-1.598-1.2c-0.617-0.34-0.705-0.125-2.454-1.577c-6.77-7.02-5.769-5.61-10.011-10.04   c0.855,0.017-12.577-14.012-20.246-22.221c1.228,1.238,2.812,2.837,3.667,3.7c6.031,5.501-3.618-4.318-3.716-4.646l-4.413-3.993   c0.82,0.762,2.013,1.758,0.279-0.094c-5.768-5.611-5.853-4.864-11.611-10.466c-0.195-0.657,4.958,3.794,1.547,0.141   c-1.016-1.42-4.357-5.835-12.108-13.177c-0.623-0.446-2.629-2.353-4.936-4.583c0.328,0.303,0.732,0.689,0.892,0.814l-4.761-5.265   c4.665,3.877,8.451,8.824,13.14,12.721l0.739-0.011c3.343,3.34,8.041,7.714,10.321,9.605c-5.029-5.156-6.2-6.13-11.974-11.748   c-0.56-1.034,3.627,2.801,4.23,3.354l-1.063-0.636c6.482,7.103,10.515,9.795,18.899,18.32c1.262,1.291,0.455,0.54,0.1,0.327   c7.208,6.481,13.426,13.695,20.559,19.869l-2.367-1.972c4.711,4.353,13.923,12.864,23.129,21.369l0.224-0.061   c-0.24-0.31-0.2-0.299,0.027-0.072c0.226,0.228,0.657,0.657,1.081,1.273c0.443,0.6,0.864,1.384,1.204,2.191   c0.318,0.815,0.537,1.658,0.639,2.361l-0.006-0.014c0.366,1.729,0.328,3.536-0.099,5.231c-0.44,1.692-1.274,3.259-2.366,4.545   c-2.176,2.608-5.401,4.005-8.327,4.129c0.942,0.053,2.025-0.054,3.194-0.332c1.16-0.307,2.39-0.837,3.552-1.64   c0.456-0.39,1.482-1.228,2.461-2.502c0.984-1.268,1.83-3.012,2.19-4.731c0.385-1.719,0.287-3.363,0.065-4.391   c-0.204-1.038-0.483-1.476-0.485-1.001c-0.268-1.516-0.986-3.219-2.17-4.693c-0.303-0.343-0.646-0.734-0.942-1.031   c-0.293-0.289-0.587-0.579-0.883-0.87c-0.595-0.579-1.192-1.161-1.782-1.735c-2.364-2.292-4.615-4.448-5.921-5.902   c4.777,5.278-3.868-3.134-4.964-3.8c-1.444-1.937-7.47-7.432-6.48-7.104c-0.906-1.078,2.249,2.688,4.586,4.629   c5.573,4.958-9.371-9.912-2.518-3.645c-8.576-8.112-19.471-19.208-28.381-27.511l4.683,4.953   c-3.777-3.874-12.906-12.855-13.423-13.691c2.872,2.813,6.228,6.102,9.903,9.702c0.549-0.197-8.742-8.738-8.917-9.373l-11.18-9.945   l4.605,4.647c-3.141-2.688-12.54-12.635-19.657-19.856c4.624,3.603,10.829,10.803,18.578,18.142   c5.673,5.286-2.892-3.876,2.416,1.188c-1.226-1.464-4.623-4.834-6.42-6.374l-1.954-2.139c5.091,4.163,15.358,14.638,22.661,21.143   c-0.655-0.557-1.236-1.032-1.481-1.17c5.135,5.495,10.541,10.887,15.847,15.946c-2.595-2.888-3.779-3.873-5.399-5.386   c-0.08-0.31,4.861,4.533,6.84,6.257c-4.686-4.956-0.626-1.173-3.6-4.299c3.25,3.029,5.762,5.604,9.538,9.479   c1.809,2.16-1.882-1.399-1.707-0.765c4.079,3.802,5.331,6.153,11.362,11.654c-7.573-7.767,2.521,1.521,5.317,4.01l-1.27-1.302   c2.702,2.162,4.777,4.216,6.212,6.144c-3.25-3.029-6.212-6.144-5.593-4.977c2.086,2.062,4.165,4.117,6.596,6.384l-2.333-1.938   c0,0,2.591,2.563,5.182,5.124c0.324,0.32,0.647,0.641,0.967,0.956c0.135,0.125,0.393,0.414,0.58,0.616   c0.199,0.227,0.41,0.437,0.586,0.672c0.721,0.925,1.312,1.86,1.695,2.72c0.42,0.844,0.641,1.603,0.803,2.125   c0.132,0.532,0.208,0.837,0.208,0.837c0.502,1.509,0.851,3.689,0.59,5.854c-0.215,2.168-0.994,4.249-1.671,5.636   c-0.808,1.052-1.828,2.064-2.979,3.01c-1.18,0.92-2.531,1.718-3.967,2.308c-2.882,1.183-6.061,1.367-8.527,0.894   c-0.001,0.052,2.324,0.204,2.322,0.15c-2.381-0.17-5.547-1.037-8.223-3.134c-0.346-0.244-0.66-0.527-0.975-0.815l-0.473-0.435   l-0.335-0.33c-0.412-0.41-0.828-0.824-1.243-1.238c-0.838-0.822-1.675-1.645-2.483-2.438c-3.247-3.16-6.086-5.805-6.619-6.124   c-3.058-3.439,24.318,21.597,1.162-1.163c-8.729-8.726-6.118-4.754-11.336-9.499c0,0,0.352,0.211-0.099-0.328   c-3.77-3.869-4.412-3.993-7.662-7.022c2.187,2.394,5.501,5.717,6.669,6.688c-1.436-0.864-7.93-7.979-11.081-10.682   c4.238,3.358-7.215-7.551-4.041-4.828c-7.313-7.879-15.782-15.652-20.097-19.317c-4.603-5.708-9.112-8.967-17.223-17.588   c1.27,1.303,3.686,3.553,5.425,5.411c5.118,4.418-8.485-8.853-0.825-1.833c-1.625-1.515-0.298,0.075,1.368,1.63   c2.854,2.775,5.66,5.273,5.111,4.406l-6.508-7.127l2.465,2.295l-9.918-10.775c-0.352-0.211,0.531,0.848,0.985,1.389   c-11.812-12.188-25.771-25.671-36.228-36.241c-1.356-0.452-6.986-5.828-13.561-12.276c-3.282-3.23-6.817-6.712-10.155-9.997   c-0.837-0.819-1.662-1.625-2.468-2.413c-0.31-0.298-0.616-0.593-0.917-0.883c-0.185-0.171-0.366-0.339-0.544-0.504   c-0.71-0.652-1.354-1.225-1.897-1.669c-0.415,0.487-0.759,0.917-1.036,1.296c0.443-0.751,0.868-1.612,1.036-2.18   c0.132-0.088,0.163-0.265,0-0.599c0.005-0.097-0.084-0.087-0.218-0.019c0.064-0.07,0.133-0.146,0.218-0.239   c0.62,0.509,1.51,1.238,2.562,2.1c0.82,0.646,3.197,2.888,5.103,4.87c0.527,0.846,5.653,6.331,2.058,3.098   c11.985,11.761-1.174-2.04,2.698,1.097c-2.797-2.756-5.372-5.248-7.772-7.537c-0.488-0.459-0.967-0.908-1.437-1.349   c-0.386-0.354-0.765-0.699-1.136-1.039c-0.718-0.644-1.407-1.262-2.075-1.86c-0.862,0.973-1.685,1.902-2.481,2.801   c-0.39,0.445-0.772,0.882-1.15,1.313c-0.601,0.654-1.193,1.3-1.779,1.939c-2.346,2.556-4.6,5.002-6.932,7.469l-0.327,0.094   l-6.049,6.491c5.189-5.059,5.496-4.245-1.304,2.163l0.776-0.831c-4.002,3.532-11.563,11.646-17.483,17.493l-3.665,4.313   c-5.93,5.856-6.787,5.507-9.064,7.062c-9.279,9.194-14.119,15.022-20.386,21.877c-3.23,2.704-17.127,16.478-10.116,8.828   c-8.1,8.563-5.01,8.291-20.08,21.8l3.455-3.962c-13.609,13.715-32.589,33.704-39.151,39.731c1.032-1.487,0.424-1.223-1.122,0.035   c-0.772,0.629-1.779,1.506-2.932,2.537c-0.574,0.518-1.188,1.071-1.828,1.648c-0.319,0.291-0.645,0.588-0.976,0.889l-0.259,0.235   l-0.351,0.302l-0.718,0.597c-1.013,0.741-2.127,1.392-3.325,1.848c-1.2,0.439-2.45,0.756-3.704,0.842   c-2.501,0.199-4.958-0.323-6.886-1.323c-1.949-0.979-3.368-2.334-4.25-3.535c-0.899-1.202-1.293-2.246-1.404-2.782   c0.177,0.597-0.976-1.07-1.478-3.354c-0.25-1.134-0.321-2.382-0.272-3.423c0.036-0.519,0.094-0.986,0.137-1.366   c0.065-0.378,0.116-0.669,0.145-0.838c0.342-0.968,0.86-2.239,1.728-3.523c0.432-0.641,0.925-1.297,1.498-1.925   c0.238-0.267,0.481-0.537,0.727-0.813c0.225-0.262,0.453-0.527,0.683-0.795c-0.701,0.661-1.134,1.015-1.507,1.337   c-0.386,0.345-0.582,0.476-0.666,0.474c-0.17-0.001,0.121-0.536,0.252-0.849c0.132-0.31,0.08-0.407-0.809,0.537   c-0.424,0.486-1.037,1.266-1.702,2.547c-0.634,1.283-1.319,3.116-1.386,5.584c-0.047-1.247,0.084-2.566,0.458-3.899   c0.358-1.334,0.942-2.699,1.813-3.972c0.204-0.33,0.442-0.638,0.692-0.942c0.227-0.274,0.457-0.551,0.689-0.831   c0.371-0.429,0.75-0.867,1.139-1.317c0.79-0.891,1.618-1.824,2.491-2.809c3.523-3.908,7.895-8.504,13.556-14.135l0.203,0.543   l-9.047,8.821c1.177-0.628-3.442,3.95-5.2,5.962c16.829-16.41-1.303,3.049,15.639-13.991c1.399-1.883,0.436-0.72,4.756-5.231   c-2.064,2.09-2.181,2.72,1.17-0.622l2.917-3.512c6.555-5.312-9.417,10.227-3.918,5.601c-6.268,6.854-17.475,18.374-14.882,16.732   c10.887-10.541,8.748-10.53,20.167-21.517l1.396-0.989c3.802-4.079,4.111-5.043,6.07-7.398c0.31-0.079,1.397-0.994,3.961-3.492   c6.174-7.133,10.497-11.643,16.111-18.303c-15.943,16.728-14.329,13.601-30.841,30.812c2.488-2.797,14.245-14.78,14.458-16.025   l0.216,0.531c5.288-5.676,10.575-11.347,17.583-18.109l-3.993,4.413c8.866-9.386,15.737-14.604,22.316-22.426   c-2.577,2.51-4.63,4.586-6.143,6.212c4.531-4.863,10.462-10.719,15.63-15.761l9.947-11.179c0.092,0.277,6.797-6.405,3.863-2.88   c7.889-7.322,10.918-11.463,15.22-15.949c8.184-7.392-6.569,6.923-6.817,8.201c10.902-10.557,22.119-22.086,27.837-28.476   c-2.263,2.113-3.391,3.112-3.37,2.91c0.221-0.104,1.404-1.244,2.834-2.659c1.316-1.314,2.874-2.869,3.988-3.983   c0.02-0.02,0.341-0.825,0.321-0.806c1.656-1.328,1.936-1.323,0.69,0.29c0.518-0.491,1.003-1.038,1.447-1.564   c-0.728-0.629-1.447-1.219-2.071-1.801l-0.457-0.443c-0.315-0.325-0.629-0.649-0.941-0.97c-0.708-0.745-1.387-1.496-2.021-2.253   c1.192,1.114,2.452,2.292,3.725,3.481c0.693,0.649,1.388,1.33,2.046,1.986c-0.897,0.895-1.753,1.747-2.497,2.487   c-0.755,0.769-1.454,1.479-2.076,2.112c-0.665,0.687-1.24,1.297-1.705,1.813c1.026-1.051,1.975-2.022,2.859-2.928   c0.571-0.57,1.101-1.1,1.596-1.595c0.725-0.702,1.391-1.308,2.055-1.891c-0.61-0.729-1.165-1.392-1.733-2.071   c-0.153-0.183-0.307-0.368-0.463-0.555l-0.243-0.288l-0.193-0.216l-0.255-0.277c-0.688-0.74-1.403-1.51-2.166-2.33   c-3.067-3.265-6.969-7.265-13.122-13.204c-0.097-0.329,3.067,2.384-0.273-0.963c-7.837-7.658-2.523-1.525-5.213-3.675   c6.115,5.814,8.743,8.737,11.898,12.504l-1.789-1.395c-0.139-0.343-3.879-4.094-4.883-5.296l-1.365-0.563   c0.889,0.001-4.765-6.329-9.641-10.872c4.438,5.081,3.169,3.778,3.958,5.578c-7.102-6.144-7.002-7.943-14.933-14.858   c0.699,0.414,7.286,6.788,1.795,1.079c-4.616-4.655-4.344-3.691-7.563-6.69c3.871,3.132,3.246,1.958,7.479,5.315   c8.282,8.189,3.317,3.327,11.529,11.216l-6.501-7.126c7.038,6.918,5.497,4.651,6.213,5.084   c-11.54-12.292-9.542-8.419-17.112-16.183c-3.95-3.443,7.128,7.235,1.081,1.719c-7.116-7.224-1.876-1.394-10.084-9.28l1.518,1.177   c-2.241-2.679-4.943-4.841-7.827-7.65c-3.243-3.019,2.26,4.829-10.636-8.017c0.733,0.527,1.031,0.693,1.074,0.651l15.661,9.452   c-13.049-13.034-27.991-28.148-42.885-43.459c-2.95-4.164,11.28,10.279,10.629,9.081l6.764,7.013   c-0.644-0.129-14.511-14.352-8.745-7.677c12.348,11.979,17.572,17.794,29.642,28.803c-2.976-4.193-15.306-15.09-22.342-23.067   c3.112,3.192,5.84,5.786,8.511,8.282c-6.969-7.129-14.428-14.757-22.356-22.868l-1.949-1.654c5.336,5.473,9.024,9.264,9.484,9.769   c-7.113-7.22-13.495-12.928-14.416-12.958l1.257,1.289l-2.729-2.451C131.162,146.657,129.509,144.948,127.865,143.247z    M318.839,208.333c0.393-0.479,0.687-0.872,0.878-1.187C319.519,207.474,319.855,207.222,318.839,208.333z M215.752,283.851   c9.535-9.38,19.147-18.835,28.313-27.852c-0.583-0.588-1.12-1.131-1.655-1.672c0.518,0.57,1.032,1.134,1.521,1.672   c-2.414,2.202-4.723,4.308-6.853,6.25c-1.837,1.633-3.52,3.129-4.985,4.432c-2.923,2.572-5.009,4.347-5.774,4.853   c-0.765,0.505-0.209-0.258,2.15-2.76c2.304-2.446,6.723-6.941,12.556-12.774c-0.214-0.214-0.493-0.494-0.777-0.777l-1.779-1.652   c0.665,0.696,1.43,1.498,2.319,2.43c-1.689,1.635-3.554,3.474-5.64,5.56c-2.229,2.254-4.592,4.643-6.896,6.974   c-2.2,2.545-6.85,7.925-10.933,12.648c-2.024,2.376-3.908,4.586-5.276,6.192c-1.36,1.612-2.195,2.629-2.128,2.613   c1.927-1.436,4.109-4.155,7.241-7.136L215.752,283.851z M207.483,289.174c-5.516,5.319-4.088,4.281-4.753,5.297   c1.884-1.929,3.766-3.854,5.626-5.759C207.592,289.387,207.175,289.681,207.483,289.174z M203.23,294.321   c0.613-0.604,1.14-1.115,1.436-1.363L203.23,294.321z M175.037,189.04c0.246,0.236,0.334,0.321,0.567,0.545   c-1.266-1.293-2.535-2.589-3.859-3.941C172.236,186.192,173.203,187.202,175.037,189.04z M185.603,200.465l1.606,0.964   c-1.181-1.205-2.386-2.435-3.619-3.693C183.856,198.293,184.159,198.849,185.603,200.465z M219.887,236.862   c2.614,1.843,10.094,9.289,10.997,9.301c0.59,0.362-0.936-1.252-2.661-3.05c-1.954-1.977-4.04-4.088-6.251-6.326   c-0.142-0.012-0.645-0.394-1.441-1.074c2.142,2.252,3.499,3.831,2.335,3.214c-5.053-6.245-5.486-4.638-11.44-10.897   C209.168,226.4,217.911,235.136,219.887,236.862z M391.524,406.18c0.135,0.212,0.631,0.908,1.345,1.869l-4.522-4.081   c-7.576-7.771-13.084-14.557-20.54-20.914c-3.095-3.37-4.533-5.393-5.946-7.286c1.564,1.6,3.022,3.103,4.218,4.373   C386.246,398.7,375.324,391.087,391.524,406.18z M304.084,317.174c0.819,0.764,1.176,0.976,1.176,0.976   c-17.961-16.329-32.314-30.209-41.526-39.484c1.469,2.116,9.509,10.658,13.313,14.729l-3.857-3.12l-1.889-2.469l-6.393-5.722   c1.445,1.941,6.389,6.782,9.468,10.242c0.354,0.214,11.255,10.254,14.409,12.953l-8.111-8.62   c2.156,2.361,13.339,13.374,17.834,17.681c0.271-0.1-7.027-7.968-8.384-8.521c-0.628-1.176,8.117,7.563,2.883,1.741   c6.844,6.259,17.023,16.927,21.724,21.899l0.358,1.279c5.127,5.485,4.141,3.029,10.178,9.601c-7.84-7.661,0.805,1.815-5.395-4.315   c1.794,2.143-0.447,0.528,5.765,6.671c5.753,4.532,6.129,6.894,11.528,11.217c3.058,3.438-3.862-3.128,2.447,3.344   c7.65,7.011,7.457,6.357,8.355,6.367c-6.729-6.979-8.278-7.124-13.776-12.838l11.91,10.39c-1.947-2.163-3.456-3.694-4.763-4.94   c2.284,2.196,4.301,3.987,6.084,5.461c1.01,0.846,1.94,1.627,2.801,2.348c-6.316-6.323-11.917-11.946-12.72-13.128l1.087,0.656   c-2.04-2.435-5.842-5.927-7.681-7.45c-5.682-5.635-11.635-10.986-12.591-12.502l2.345,1.95   C313.642,326.672,312.839,325.923,304.084,317.174z M110.318,389.574c-2.502,1.712-5.09,3.557-9.494,7.448   c-1.101,0.973-2.315,2.074-3.67,3.333c-0.661,0.629-1.433,1.278-2.067,2.152c-0.64,0.854-1.196,1.861-1.563,3.01   c-0.721,2.28-0.699,5.167,0.683,7.85c1.364,2.632,4.175,5.025,7.831,5.489c0,0-0.573-0.045-1.133-0.184   c-0.284-0.05-0.562-0.127-0.767-0.198c-0.207-0.064-0.344-0.107-0.344-0.107c3.408,1.527,7.636,0.836,10.493-1.582   c0.717-0.637,1.301-1.264,1.908-1.896c0.604-0.634,1.21-1.271,1.819-1.909c1.21-1.285,2.432-2.581,3.669-3.894   c4.944-5.258,10.164-10.777,16.47-16.533c-5.556,6.15-5.268,5.809-11.048,12.951l6.056-6.503c-1.31,2.169,4.732-4.317,9.36-8.904   l-3.555,4.578c-2.913,2.619-10.136,9.735-9.809,9.642c0.757-0.813-1.771,1.392-5.219,4.568c-1.724,1.588-3.678,3.419-5.566,5.237   c-0.944,0.919-1.877,1.829-2.766,2.694c-1.017,1.01-2.184,1.756-3.296,2.287c0.273,0.012,1.732-0.531,3.251-1.843   c0.413-0.344,0.693-0.624,1.036-0.942c0.333-0.314,0.677-0.639,1.022-0.965c0.692-0.653,1.394-1.316,2.046-1.933   c2.614-2.456,4.472-4.102,1.929-0.992c4.745-5.219,5.708-5.492,10.793-10.82c-4.756,5.231-0.764,1.708-4.229,5.678l8.421-8.656   c0.338-0.106-12.179,12.692-4.756,6.121c3.239-3.603,12.602-12.509,12.393-13.046l0.325-0.096   c6.481-6.319,2.287-3.343,10.359-10.989c-0.095-0.279-1.724,1.089-4.5,3.943c-2.296,2.463-2.405,3.084-7.254,8.037   c-2.489,1.905,5.948-5.876,2.052-2.967c-1.936,1.445-12.727,13.151-9.697,9.013l6.468-6.308c-0.21-0.537,4.438-5.142,4.007-5.313   c3.769-4.043,7.876-7.31,11.541-11.624c1.415-1.897-1.926,0.546,4.87-5.859c5.71-4.605,20.801-19.911,26.415-25.683l4.744-5.22   c-0.653,0.194-9.487,9.55-6.586,6.054l7.679-7.859l-0.456,0.743c2.606-2.542,5.085-5.33,7.352-7.76   c-2.15,2.688-7.858,8.18-6.357,7.456c3.723-3.57,4.424-3.981,7.705-7.412c-0.705,0.76-1.297,1.428-1.15,1.39   c7.551-7.214,6.694-7.564,8.419-9.542c6.917-7.929-7.952,7.013-7.403,5.663l21.458-21.886c-1.725,1.978-3.462,3.966-2.604,3.428   c5.495-5.137,0.422,0.181,7.867-7.301c-1.063,0,9.066-9.729,14.031-15.309c2.681-2.245,3.231-2.708-2.148,2.685   c0.963-0.272,8.062-7.637,10.664-10.177c0.698-0.783,1.686-1.839,2.655-2.875c0.964-1.037,1.943-2.09,2.702-2.908   c-2.04,1.72-1.672,0.953,2.628-3.638c0.153,0.142,0.466,0.432,0.797,0.737l0.304,0.158c-0.346-0.354-0.699-0.716-1.101-1.127   c-4.021,3.889-8.966,8.672-13.512,13.068c-4.361,4.252-8.289,8.184-10.419,10.652l1.186-1.528   c-9.158,8.562-18.661,19.9-23.398,23.334c0.119-0.635-1.839,1.721-2.058,1.193l-6.232,6.815l1.188-1.526l-11.013,11.182   l0.224-0.363c-4.927,5.623-8.786,10.027-11.869,13.546c0.15,0.175,0.543-0.118-1.095,1.76c-1.684,1.846-3.01,3.196-4.224,4.367   c-0.009,0.01-0.009,0.01-0.007,0.012l-0.002-0.002c-2.77,2.675-4.818,4.255-8.266,7.513l10.279-10.358   c0.564-1.116-0.6-0.525-5.849,4.337c2.057-2.078,2.707-3.158,0.116-0.632c-0.209,0.354-6.585,6.938-3.896,4.689   c-9.702,9.903-26.296,25.047-40.654,40.454c10.377-11.008-8.94,8.2,2.817-3.783c-8.728,7.844-6.694,7.564-15.209,15.941   c-0.879,0.561,4.619-4.578,6.247-6.832c-3.555,3.467-6.769,6.726-9.804,9.873c-0.379,0.395-0.755,0.786-1.13,1.176   c-0.199,0.216-0.343,0.337-0.504,0.495c-0.157,0.153-0.313,0.309-0.491,0.433c-0.668,0.562-1.436,0.988-2.246,1.293   c-1.616,0.636-3.43,0.707-5.12,0.281c-1.682-0.454-3.246-1.431-4.383-2.83c-1.146-1.38-1.848-3.172-1.927-5.055   c-0.071-1.874,0.454-3.847,1.656-5.443c0.282-0.426,0.624-0.749,1.001-1.161c0.403-0.404,0.81-0.812,1.22-1.223   c0.825-0.815,1.663-1.645,2.517-2.489l0.925-0.236C104.592,395.498,107.398,392.594,110.318,389.574z M136.761,362.27   c2.576-2.653,5.188-5.345,7.842-8.079c-0.267,0.259-0.514,0.5-0.792,0.771l7.578-8.134c-4.961,4.693-8.52,7.494-1.941,0.563   c-0.426,0.711,1.723-1.089-0.542,1.343c4.734-4.32,14.867-14.053,11.756-11.983c-8.208,9.191-2.69,1.364-9.161,8.565   c3.329-4.008,7.116-7.489,10.429-11.105c-3.323,3.891,1.484-0.197,7.037-5.479c2.274-2.442,8.735-8.744,12.517-12.8   c-1.715,1.079,1.514-2.516-4.95,3.789c2.259-2.426,5.817-6.117,10.042-10.015c-1.555,1.665-4.331,4.52-4.021,4.44   c2.913-2.328,5.969-5.41,7.788-6.978c1.333-1.368,2.679-2.748,3.988-4.091c-0.423,0.368-0.802,0.675-1.092,0.873l4.206-4.768   c-5.827,6.126-2.91,2.615-3.019,2.352c0.212,0.534,3.896-3.799,5.929-5.857l-4.838,4.051c1.951-2.346,7.868-7.3,6.356-6.567   c-9.584,9.272-13.143,12.964-21.551,21.607l3.767-3.155c-9.404,9.837-6.458,5.409-17.238,16.219   c-4.208,4.766-16.214,16.252-15.877,17.034c1.183-1.523-7.219,6.224-10.665,10.177c-3.577,4.601-15.872,17.033-11.894,13.521   c3.347-3.334,7.563-8.112,10.581-10.465l-6.374,6.588l4.531-3.974C134.855,362.811,135.341,362.871,136.761,362.27z    M206.207,212.896c-0.069-0.073-0.159-0.168-0.243-0.257c0.095,0.096,0.188,0.189,0.276,0.28L206.207,212.896z" fill="#202020"/><path d="M350.595,338.26c-1.99-1.737-6.577-6.365-5.949-5.188C344.836,332.659,352.925,341.259,350.595,338.26z" fill="#202020"/><path d="M345.38,332.455c-0.397-0.252-0.286,0.089-2.364-1.968l5.769,5.615L345.38,332.455z" fill="#202020"/><path d="M341.663,324.62c-3.161-2.711-5.147-4.444-9.735-9.072c-0.995-2.466,7.749,7.338,10.523,8.741   c-8.376-8.515-11.611-10.466-18.62-17.351C326.967,310.687,340.851,324.926,341.663,324.62z" fill="#202020"/><polygon fill="#202020" points="346.344,327.443 341.481,322.912 341.901,323.418 346.767,327.953  "/><path d="M397.517,403.647c-0.193-0.653-3.346-3.354-4.972-4.868C393.807,400.07,395.532,401.917,397.517,403.647z" fill="#202020"/><path d="M412.183,101.952c0,0,0.134,0.284,0.258,0.827c0.104,0.542,0.139,1.383-0.207,2.278   c-0.171,0.446-0.444,0.886-0.837,1.297c-0.945,0.959-1.943,1.971-2.975,3.018c-2.087,2.112-4.313,4.366-6.537,6.619   c-8.902,9.013-17.805,18.025-17.805,18.025c5.128-5.181,10.06-10.164,15.698-15.862c2.817-2.852,5.811-5.882,9.094-9.207   c0.82-0.832,1.658-1.682,2.517-2.552c0.354-0.379,0.632-0.798,0.829-1.276C412.612,104.178,412.653,102.974,412.183,101.952z" fill="#202020"/><path d="M277.121,286.254c9.837,9.404,14.507,13.282,24.41,22.983c-12.427-13.353-17.747-16.302-28.096-27.598   L277.121,286.254z" fill="#202020"/><path d="M282.347,287.815c1.162,2.027-7.93-6.916-6.85-5.202c6.589,6.378,3.432,2.606,9.278,8.528L282.347,287.815z   " fill="#202020"/><polygon fill="#202020" points="318.791,338.562 315.649,335.87 318.079,338.136  "/><polygon fill="#202020" points="230.211,288.025 231.176,286.864 226.216,291.552  "/><path d="M232.14,285.702l-0.964,1.162L232.14,285.702z" fill="#202020"/><polygon fill="#202020" points="314.115,335.742 318.358,340.17 320.701,342.116  "/><path d="M278.168,295.152l4.017,3.74C281.389,298.15,276.261,292.666,278.168,295.152z" fill="#202020"/><polygon fill="#202020" points="200.567,317.302 196.013,322.186 196.538,321.747 201.076,316.878  "/><path d="M251.844,279.527c3.012-2.347-7.648,7.827-1.841,2.608C254.851,277.184,252.687,279.001,251.844,279.527z" fill="#202020"/><path d="M192.649,334.211c-0.637,0.637-1.295,1.318-1.904,2.002C191.494,335.424,192.124,334.761,192.649,334.211z" fill="#202020"/><path d="M192.649,334.211c2.055-2.056,4.237-3.983,5.55-5.488C195.487,331.134,194.61,332.124,192.649,334.211z" fill="#202020"/><path d="M169.18,357.833l1.887-1.84c-1.739,2.068-0.861,1.142,0.707-0.69c1.963-1.985,1.747-1.979,1.91-2.286   c0.354-0.438,0.705-0.872,1.085-1.344c-0.563,0.653-1.07,1.241-1.499,1.739C170.208,356.469,168.358,358.351,169.18,357.833z" fill="#202020"/><path d="M108.68,399.513c-3.503,3.38-5.715,5.499-7.036,6.695c-0.109,0.098-0.208,0.187-0.298,0.267   c-0.044,0.035-0.088,0.063-0.13,0.087c-0.094,0.04-0.133,0.092-0.191,0.108c-0.107,0.041-0.183,0.014-0.23-0.072   c-0.453,0.607-0.563,1.174-0.562,1.587c0.006,0.422,0.145,0.692,0.239,0.907c0.273,0.415,0.52,0.629,1.042,1.154   c-0.472-0.518-0.647-1.062-0.672-1.57c-0.035-0.509,0.085-0.949,0.283-1.339c0.031-0.108,0.126-0.182,0.164-0.292   c0.094-0.075,0.121-0.196,0.229-0.273c0.053-0.052,0.065-0.075,0.142-0.164c0.168-0.168,0.338-0.338,0.512-0.512   c0.347-0.347,0.706-0.706,1.081-1.082C104.742,403.504,106.484,401.739,108.68,399.513z" fill="#202020"/><path d="M101.513,410.247c0.217,0.234,0.454,0.437,0.768,0.584C101.947,410.637,101.705,410.443,101.513,410.247z" fill="#202020"/><polygon fill="#202020" points="199.523,333.136 195.641,337.808 197.156,336.183  "/><path d="M119.024,389.43c-1.292,1.26-3.327,3.317-4.42,4.232C114.495,394.29,120.313,388.173,119.024,389.43z" fill="#202020"/><path d="M95.132,413.318c0.1,0.479,1.072,2.025,2.688,3.161c1.58,1.189,3.727,1.739,4.962,1.827   c-1.795-0.15-3.289-0.934-4.496-1.827C97.08,415.545,96.131,414.486,95.132,413.318z" fill="#202020"/><path d="M137.703,368.621c-1.293,1.26-3.429,3.049-2.793,1.984C133.182,372.587,131.129,375.552,137.703,368.621z" fill="#202020"/><path d="M100.044,398.38l-1.07,0.895c0,0-1.136,1.219-2.271,2.438c-0.53,0.603-1.005,1.244-1.29,1.768   c-0.141,0.262-0.257,0.479-0.339,0.632c-0.067,0.16-0.105,0.251-0.105,0.251s0.049-0.108,0.136-0.299   c0.104-0.182,0.252-0.44,0.43-0.752c0.402-0.609,0.968-1.332,1.703-2.047C98.64,399.822,100.044,398.38,100.044,398.38z" fill="#202020"/><path d="M96.967,421.984c1.288,0.574,2.068,0.681,2.376,0.741c0.322,0.017,0.2-0.06-0.173-0.246   c-0.754-0.35-2.492-1.188-3.757-2.246c-0.313-0.267-0.611-0.523-0.872-0.766c-0.247-0.258-0.462-0.495-0.635-0.694   c-0.353-0.391-0.498-0.666-0.404-0.645c0.088,0.024,0.454,0.308,1.228,0.918c0.802,0.562,2.046,1.486,4.13,2.197   c-2.652-1.029-4.216-2.517-5.235-3.604c-1.021-1.119-1.503-1.966-1.81-2.448c-0.313-0.484-0.403-0.65-0.43-0.604   c-0.023,0.045,0.037,0.292,0.148,0.569c0.205,0.563,0.536,1.299,0.238,0.983c-0.133-0.168-0.478-0.575-0.939-1.478   c-0.468-0.893-1.06-2.31-1.338-4.459c0.279,2.522,1.132,4.648,2.141,6.26c0.996,1.632,2.118,2.752,3.026,3.575   C96.532,421.645,97.526,422.107,96.967,421.984z" fill="#202020"/><path d="M89.493,410.203c-0.148-1.464-0.105-3.073,0.271-4.762C89.332,407.308,89.35,408.879,89.493,410.203z" fill="#202020"/><path d="M163.606,332.327c-0.737,0.802-1.227,1.362-1.676,1.884C162.51,333.58,163.057,332.97,163.606,332.327z" fill="#202020"/><path d="M114.577,376.947l-7.477,8.401c4.995-5.61,18.355-18.933,17.063-18.562   c-4.414,4.227-9.49,9.547-11.426,11.881L114.577,376.947z" fill="#202020"/><path d="M214.056,294.171l-3.248,3.613l4.337-4.229C213.849,294.712,215.73,292.155,214.056,294.171z" fill="#202020"/><path d="M215.983,292.736l-0.838,0.818C215.339,293.384,215.606,293.125,215.983,292.736z" fill="#202020"/><path d="M148.813,347.566c-2.598,2.532-4.637,4.597-6.894,7.019C142.976,353.701,149.448,347.391,148.813,347.566z" fill="#202020"/><polygon fill="#202020" points="237.541,269.347 231.958,275.088 238.101,268.876  "/><polygon fill="#202020" points="229.569,233.115 228.679,232.051 223.82,227.522 224.725,228.601  "/><path d="M221.127,269.201c-3.887,3.789-6.471,7.2-5.379,6.283l7.423-7.459c-2.253,1.529-2.054,2.074-6.459,6.297   L221.127,269.201z" fill="#202020"/><path d="M151.987,147.087c-1.904-1.421-9.904-9.701-10.101-10.357c1.194,0.994,5.702,5.312,3.077,2.394   l-7.034-5.847c-8.196-8.937,7.292,5.731,11.732,9.752c-8.65-8.804-11.628-11-20.909-20.286c2.685,2.791,4.267,4.67,5.586,6.244   c-0.103,0.733-8.567-8.102-14.784-14.253c3.755,4.119,1.325,1.994-1.707-0.709c-0.529-0.503-0.896-0.822-1.168-1.039   c-0.354-0.313-0.688-0.61-1.032-0.915l0.742,0.741c-0.099-0.005,0.008,0.215,0.465,0.827c5.31,5.067,8.929,9.385,12.264,12.73   c-2.621-3.979,11.533,11.219,15.942,15.209l4.916,4.782l1.815,1.813c0.29,0.439-0.32,0.017-3.22-2.615   c2.442,2.174,10.094,9.919,9.601,8.991l17.578,17.559c0.52,0.575,1.032,1.156,1.388,1.61c0.652,0.566,0.789,0.632,0.743,0.518   c26.04,26.012,52.079,52.024,78.119,78.063l6.973-7.004c-2.427,2.37-4.743,4.631-6.973,6.808   c-4.004-4.136-7.864-8.125-12.183-12.586c0.787,0.674,1.278,1.079,1.541,1.273c0.093,0.073,0.165,0.128,0.215,0.168   c0.063,0.048,0.102,0.074,0.119,0.079c0.034,0.009-0.02-0.066-0.146-0.209c-0.312-0.383-1.194-1.284-2.252-2.36   c-2.095-2.129-4.709-4.772-3.638-4.128c3.008,2.699,5.682,5.469,10.763,10.758c0.806,0.59-0.206-0.624-1.257-1.89   c-1.06-1.274-2.158-2.596-1.727-2.423c-0.726-0.751-1.413-1.462-2.066-2.138c-0.54-0.547-1.052-1.065-1.541-1.56   c-0.985-0.981-1.889-1.85-2.738-2.644c-1.7-1.587-3.183-2.874-4.663-4.149c-2.96-2.551-5.908-5.062-10.548-9.859   c0.632,0.116,3.775,2.807-2.437-3.335l1.625,1.514c-10.181-9.603-7.124-8.291-14.059-13.81l0.537-0.209   c-4.769-4.206-13.5-12.935-18.472-17.803l0.366,0.222c-14.229-13.375-7.838-7.657-23.515-22.976l7.567,6.697   c-5.167-5.526-6.845-6.258-10.634-10.145c0.347,0.203-0.271-0.959,3.422,2.598l-19.468-18.142   C146.041,140.838,151.448,146.23,151.987,147.087z" fill="#202020"/><path d="M128.752,122.743c-0.975-1.015-2.098-2.154-3.447-3.475C126.588,120.562,127.693,121.676,128.752,122.743z" fill="#202020"/><path d="M270.253,238.007l-7.28,7.287c1.457-1.444,2.944-2.918,4.499-4.46   C268.354,239.938,269.274,239.003,270.253,238.007z" fill="#202020"/><path d="M103.875,100.433c0.673,0.277,0.363,0.289-0.065,0.31c-0.45,0.017-1.015,0.244-1.071,0.367   c-0.002-0.007,0.06-0.024,0.172-0.043c0.054-0.018,0.12-0.041,0.201-0.041c0.078-0.014,0.167-0.035,0.267-0.027   c0.395-0.032,0.932,0.061,1.364,0.32c0.117,0.051,0.21,0.143,0.32,0.208c0.052,0.038,0.091,0.095,0.143,0.133l0.084,0.065   l0.259,0.258c0.685,0.684,1.324,1.322,1.871,1.87c1.096,1.094,1.826,1.824,1.826,1.824c0.091-0.196,1.408,0.799,1.304,0.433   c0,0-2.392-2.377-4.783-4.754c-0.135-0.13-0.131-0.105-0.199-0.171c-0.053-0.039-0.088-0.105-0.148-0.132   c-0.114-0.06-0.196-0.166-0.313-0.207c-0.102-0.064-0.202-0.125-0.308-0.159c-0.095-0.058-0.197-0.086-0.29-0.113   C104.141,100.448,103.875,100.433,103.875,100.433z" fill="#202020"/><path d="M112.356,109.329c0.496,0.295,1.821,1.442,3.291,2.742l-6.4-6.394   C109.178,105.825,109.798,106.64,112.356,109.329z" fill="#202020"/><polygon fill="#202020" points="118.787,100.428 120.867,102.483 124.105,105.499  "/><path d="M150.489,133.394c-2.251-2.687-7.102-7.207-8.724-8.718C147.171,130.068,144.749,127.811,150.489,133.394z" fill="#202020"/><polygon fill="#202020" points="146.151,124.388 151.478,129.469 151.036,128.941  "/><path d="M308.531,196.795c0.845-0.861,1.665-1.697,2.52-2.567C309.883,195.391,309.133,196.162,308.531,196.795z" fill="#202020"/><path d="M263.062,242.974c1.089-1.042,2.031-1.946,2.842-2.722c0.493-0.452,0.906-0.829,1.246-1.14   c0.673-0.607,1.067-0.942,1.242-1.063c0.35-0.242-0.18,0.372-1.109,1.383c-0.495,0.577-3.338,3.497-5.54,5.791   c-2.292,2.384-4.49,4.688-5.742,6.077c-1.239-1.106-1.578-1.282-0.172,0.332l0.172,0.169l11.459-11.811l-0.432,0.718l8.192-8.286   c-1.937,1.444-3.222,2.699-3.113,2.073c11.1-10.897,3.774-3.161,12.169-10.903l12.246-12.34l-0.917,1.072   c1.029-1.041,1.454-1.531,1.768-1.928l41.268-41.589c7.333-7.743-4.633,3.704,0.546-2.236   c-8.735,8.738-21.992,21.445-22.219,22.702c0.223-0.365,0.658-1.084-1.174,0.625l-4.629,5.477l4.954-4.683   c-4.658,5.503-21.159,21.816-24.388,24.52c9.186-9.474,3.994-5.301,17.269-18.022c-0.714,0.454-3.323,2.603-0.469-0.395   c-7.54,7.69-14.78,14.888-22.054,22.191c-3.622,3.666-7.261,7.349-10.975,11.108C271.458,234.281,267.332,238.553,263.062,242.974z   " fill="#202020"/><path d="M411.888,100.455l-0.101-0.014C411.932,100.55,411.994,100.575,411.888,100.455z" fill="#202020"/><path d="M409.038,98.879c0,0-0.314,0-0.761,0.091c-0.446,0.083-1.015,0.282-1.489,0.592   c-0.478,0.307-0.869,0.694-1.109,1.034c-0.615,0.704-1.025,1.174-1.025,1.174s0.181-0.182,0.495-0.499   c0.156-0.157,0.346-0.347,0.563-0.566c0.1-0.077,0.2-0.175,0.311-0.283c0.474-0.376,1.192-0.767,2.015-0.86   c0.817-0.109,1.645,0.075,2.182,0.344c0.273,0.127,0.491,0.258,0.63,0.371c0.15,0.095,0.229,0.164,0.226,0.169   c-0.016-0.008,0.717-0.033,0.713-0.005c-0.268-0.209-0.933-0.676-1.695-0.924c-0.388-0.117-0.793-0.188-1.162-0.24   c-0.375-0.022-0.708-0.041-0.948-0.055c-0.002-0.016,0.242-0.102,0.508-0.209C408.753,98.95,409.04,98.863,409.038,98.879z" fill="#202020"/><path d="M396.34,110.694c5.826-6.127,5.085-6.22,1.635-3.15c5.294-5.682,3.344-2.447,6.683-6.667   c-0.425-0.178-7.013,6.764-8.512,8.374L396.34,110.694z" fill="#202020"/><polygon fill="#202020" points="352.022,154.573 353.53,152.719 349.343,156.814  "/><path d="M353.53,152.719l4.157-4.063c-0.413,0.156-0.819,0.312-1.578,0.895L353.53,152.719z" fill="#202020"/><path d="M368.592,137.99c1.759-1.721,3.705-3.625,6.073-5.942L368.592,137.99z" fill="#202020"/><path d="M363.785,142.584l0.193-0.084l4.613-4.509C366.873,139.634,365.33,141.107,363.785,142.584z" fill="#202020"/><path d="M357.687,148.656c0.959-0.375,2.048-0.851,7.91-6.874l-1.618,0.718L357.687,148.656z" fill="#202020"/><polygon fill="#202020" points="183.561,162.679 188.427,167.214 187.974,166.671 183.112,162.139  "/><path d="M210.415,190.067c1.213,1.11,2.148,1.938,3.003,2.683C212.162,191.557,211.14,190.633,210.415,190.067z" fill="#202020"/><path d="M232.572,208.232c5.234,5.823-8.016-7.238,2.092,3.131c0.629,1.176-4.523-3.271-9.208-8.228   c0.641,0.125,4.863,4.532,2.162,1.306c-3.5-2.903-4.514-4.324-3.787-2.82c-5.628-5.145-6.504-5.468-10.413-8.871   c6.683,6.34,19.956,20.41,28.717,28.176c5.022,4.088,2.896,0.689,3.588,0.033C245.197,220.114,233.463,208.231,232.572,208.232z" fill="#202020"/><path d="M224.546,198.86c-2.526-2.592-3.334-3.347-4.96-4.861C219.778,194.653,222.468,196.803,224.546,198.86z" fill="#202020"/><path d="M276.881,219.584c0.392-0.584,4.902-5.332,3.741-4.503l-6.896,7.139   C275.389,220.589,276.087,220.125,276.881,219.584z" fill="#202020"/><path d="M270.699,225.35l3.026-3.13C272.948,222.981,272.009,223.946,270.699,225.35z" fill="#202020"/><path d="M277.274,219.309c-0.131,0.092-0.248,0.173-0.393,0.274C276.802,219.703,276.841,219.705,277.274,219.309z" fill="#202020"/><path d="M385.79,121.127c0.086,0.284,3.104-2.954,4.618-4.579C389.116,117.809,387.264,119.541,385.79,121.127z" fill="#202020"/><path d="M336.414,182.124l-2.91,2.616C334.569,183.851,335.113,183.394,336.414,182.124z" fill="#202020"/><path d="M298.887,229.755c-0.044,0.116-0.218,0.351-0.465,0.654C298.674,230.11,298.835,229.888,298.887,229.755z" fill="#202020"/><path d="M298.422,230.408c-1.734,2.042-7.802,7.631-9.663,9.96l0.194-0.337l-3.761,4.039   C288.827,240.394,296.53,232.749,298.422,230.408z" fill="#202020"/></g></svg>